<svg width="379" height="281" viewBox="0 0 379 281" fill="none" xmlns="http://www.w3.org/2000/svg">
<path d="M292.294 50.9949L239.079 72.1779C244.69 89.5429 256.281 104.631 273.161 113.348C281.647 117.741 290.915 120.064 300.182 120.34L292.294 50.9949Z" fill="#F6C8E2"/>
<path d="M1.05826 136.808L7.35948 133.036L13.0398 140.603L7.03752 144.375L1.05826 136.808Z" fill="#FFCB56"/>
<path d="M77.1099 235.662L109.053 135.819L138.121 131.61L151.092 236.697L136.512 236.398L132.74 194.285L99.5551 194.584L89.2294 236.697L77.1099 235.662Z" fill="#FFCB56"/>
<path d="M220.29 169.192L223.211 176.368C223.211 176.368 239.769 171.676 243.77 176.598C247.174 180.807 247.749 188.052 247.749 188.052C247.749 188.052 228.04 189.8 227.212 208.453C226.385 227.106 241.218 213.812 251.98 209.258L253.728 213.007L264.1 210.523C264.1 210.523 259.546 192.284 256.626 179.013C253.728 165.742 240.206 160.061 220.29 169.192Z" fill="#A0DDE2"/>
<path d="M328.492 64.5649C325.41 60.3789 322.306 56.1699 319.224 51.9839C318.534 51.0409 316.924 51.9609 317.637 52.9269C320.719 57.1129 323.824 61.3219 326.905 65.5079C327.595 66.4509 329.205 65.5309 328.492 64.5649Z" fill="#FF3857"/>
<path d="M328.722 52.973L316.74 62.15C315.821 62.863 316.717 64.473 317.683 63.737C321.685 60.678 325.663 57.619 329.665 54.56C330.585 53.847 329.665 52.237 328.722 52.973Z" fill="#FF3857"/>
<path d="M285.694 0.671031L277.484 13.965C276.863 14.977 278.45 15.897 279.071 14.908C281.808 10.469 284.544 6.05302 287.281 1.61402C287.925 0.579025 286.315 -0.340969 285.694 0.671031Z" fill="#F6C8E2"/>
<path d="M25.7342 78.848C25.7112 78.848 25.6652 78.848 25.6422 78.848C25.3893 78.825 25.1593 78.687 24.9983 78.503L5.86467 53.87C5.70369 53.686 5.6577 53.433 5.68069 53.18C5.70369 52.927 5.84167 52.72 6.02565 52.559L49.7663 18.542C49.9502 18.381 50.2032 18.312 50.4562 18.358C50.7092 18.381 50.9161 18.519 51.0771 18.703L68.8309 41.542C69.1299 41.933 69.0839 42.485 68.6929 42.807L26.3322 78.618C26.1712 78.756 25.9412 78.848 25.7342 78.848ZM7.88842 53.456L25.8722 76.594L66.8072 41.979L50.1572 20.566L7.88842 53.456Z" fill="#000200"/>
<path d="M76.374 16.2649C76.19 16.0349 75.8681 15.9199 75.5691 15.9199L50.2262 18.3579C49.8812 18.3809 49.6053 18.6109 49.4673 18.9099C49.3293 19.2089 49.3753 19.5769 49.5823 19.8529L67.3361 42.6919C67.5201 42.9219 67.773 43.0599 68.072 43.0599C68.118 43.0599 68.187 43.0599 68.233 43.0369C68.578 42.9679 68.8539 42.7379 68.9459 42.3929L76.558 17.1389C76.65 16.8169 76.581 16.5179 76.374 16.2649ZM67.7041 40.1389L52.066 20.0369L62.9896 19.0019L70.9697 29.2599L67.7041 40.1389Z" fill="#000200"/>
<path d="M21.7327 73.6961C21.4798 73.6961 21.2268 73.5811 21.0428 73.3741C20.6979 72.9831 20.7439 72.4081 21.1348 72.0631L61.8168 36.6431C62.2078 36.2981 62.7827 36.3441 63.1276 36.7351C63.4726 37.1261 63.4266 37.7011 63.0357 38.0461L22.3537 73.4661C22.1697 73.6271 21.9397 73.6961 21.7327 73.6961Z" fill="#000200"/>
<path d="M13.0398 62.5179C12.7638 62.5179 12.4878 62.4029 12.3039 62.1499C11.9819 61.7589 12.0739 61.1609 12.4648 60.8619L56.2055 26.8449C56.6194 26.5229 57.1943 26.6149 57.4933 27.0059C57.8153 27.3969 57.7233 27.9949 57.3323 28.2939L13.5917 62.3109C13.4307 62.4489 13.2237 62.5179 13.0398 62.5179Z" fill="#000200"/>
<path d="M18.0302 81.6081C17.5472 81.6081 17.0643 81.5851 16.5813 81.5391C13.0398 81.1481 9.88917 79.4231 7.68144 76.6171L3.49595 71.3271C1.31122 68.5671 0.322344 65.0941 0.75929 61.5981C1.17324 58.0791 2.94402 54.9511 5.74968 52.7891L6.02564 52.5821C6.43959 52.2601 7.01452 52.3291 7.31348 52.7431C7.63544 53.1341 7.54346 53.7321 7.15251 54.0311L6.87654 54.2381C4.48483 56.1011 2.96702 58.7921 2.59906 61.8051C2.23111 64.8181 3.08201 67.7851 4.96778 70.1771L9.15326 75.4671C11.039 77.8591 13.7527 79.3541 16.7883 79.6991C19.8239 80.0211 22.7906 79.1471 25.1593 77.2151C25.5502 76.8931 26.1252 76.9391 26.4701 77.3531C26.7921 77.7441 26.7231 78.3191 26.3321 78.6411C23.9404 80.5731 21.0428 81.6081 18.0302 81.6081Z" fill="#000200"/>
<path d="M188.968 280.719C188.922 280.719 188.899 280.719 188.853 280.719L64.1625 265.148C63.7255 265.102 63.3806 264.734 63.3576 264.297L58.8041 207.947C58.7581 207.441 59.1491 207.004 59.655 206.958C60.161 206.912 60.207 204.428 60.253 204.934L65.1514 263.4L188.002 278.741L179.792 106.149L51.0081 88.8761L57.1483 164.661C57.1943 165.167 56.8034 165.604 56.2975 165.65C55.7915 165.673 55.3546 165.305 55.3086 164.799L49.0763 87.8641C49.0533 87.5881 49.1683 87.312 49.3523 87.128C49.5593 86.944 49.8352 86.8521 50.1112 86.8751L180.781 104.401C181.218 104.47 181.563 104.838 181.586 105.275L189.888 279.73C189.911 280.006 189.796 280.259 189.589 280.443C189.428 280.627 189.198 280.719 188.968 280.719Z" fill="#000200"/>
<path d="M188.968 280.719C188.531 280.719 188.14 280.397 188.071 279.96C187.979 279.477 188.278 279.017 188.761 278.902L310.324 249.255L297.492 136.394C297.423 135.888 297.791 135.428 298.297 135.382C298.826 135.336 299.263 135.681 299.309 136.187L312.233 249.853C312.279 250.313 311.98 250.75 311.543 250.865L299.608 253.786L299.884 267.678C299.884 268.161 299.539 268.552 299.056 268.621L189.083 280.742C189.037 280.719 189.014 280.719 188.968 280.719ZM297.768 254.2L203.042 277.315L298.044 266.85L297.768 254.2Z" fill="#000200"/>
<path d="M94.7487 233.362C94.7257 233.362 94.7027 233.362 94.6797 233.362L82.5602 232.327C82.2843 232.304 82.0313 232.143 81.8703 231.913C81.7093 231.683 81.6633 231.384 81.7553 231.108L113.721 131.265C113.836 130.92 114.112 130.69 114.457 130.621L143.526 126.412C143.779 126.389 144.032 126.435 144.216 126.596C144.423 126.757 144.538 126.964 144.561 127.217L157.554 232.304C157.577 232.58 157.508 232.833 157.324 233.04C157.14 233.247 156.887 233.339 156.611 233.339L142.008 233.04C141.548 233.04 141.157 232.672 141.111 232.189L137.431 190.927L105.81 191.203L95.6456 232.626C95.5306 233.086 95.1627 233.362 94.7487 233.362ZM142.882 231.246L155.576 231.499L142.836 128.39L115.285 132.392L83.8481 230.579L94.0358 231.453L104.201 190.099C104.293 189.685 104.661 189.409 105.097 189.386L138.282 189.087C138.765 189.087 139.156 189.455 139.202 189.938L142.882 231.246Z" fill="#000200"/>
<path d="M237.676 214.801C236.618 214.801 235.652 214.571 234.801 214.042C232.548 212.662 231.582 209.419 231.812 204.175C232.571 187.316 248.232 183.682 252.256 183.015C251.98 181.014 251.106 176.023 248.6 172.941C245.633 169.284 233.445 171.745 229.006 173.01C228.546 173.148 228.063 172.895 227.902 172.458L224.982 165.282C224.798 164.822 225.005 164.293 225.442 164.086C236.48 159.026 246.438 158.175 253.521 161.694C258.466 164.178 261.777 168.617 263.088 174.551C265.963 187.661 270.493 205.854 270.539 206.038C270.608 206.268 270.562 206.521 270.424 206.751C270.286 206.958 270.079 207.119 269.849 207.165L259.477 209.649C259.041 209.741 258.604 209.534 258.42 209.143L257.04 206.199C254.947 207.142 252.693 208.407 250.509 209.603C245.748 212.271 241.195 214.801 237.676 214.801ZM241.77 169.146C245.219 169.146 248.416 169.79 250.026 171.768C253.567 176.138 254.165 183.429 254.188 183.728C254.234 184.234 253.843 184.671 253.36 184.717C252.578 184.786 234.457 186.626 233.675 204.244C233.468 208.706 234.181 211.466 235.79 212.478C238.527 214.18 244.184 211.052 249.658 208.016C252.164 206.613 254.786 205.187 257.178 204.152C257.638 203.968 258.167 204.152 258.374 204.612L259.822 207.694L268.561 205.601C267.595 201.76 263.824 186.419 261.317 174.965C260.144 169.606 257.178 165.581 252.739 163.373C246.369 160.199 237.262 160.912 227.074 165.42L229.351 171.009C231.444 170.434 236.871 169.146 241.77 169.146Z" fill="#000200"/>
<path d="M206.538 233.362C206.354 233.362 206.17 233.316 206.009 233.201C205.779 233.04 205.641 232.81 205.618 232.534L197.477 160.429C197.431 159.992 197.684 159.578 198.121 159.44L214.426 154.242C214.909 154.081 215.438 154.357 215.576 154.84C215.737 155.323 215.461 155.852 214.978 155.99L199.409 160.958L207.343 231.246L223.234 226.876C223.717 226.738 224.223 227.037 224.361 227.52C224.499 228.003 224.2 228.509 223.717 228.647L206.791 233.316C206.699 233.362 206.607 233.362 206.538 233.362Z" fill="#A0DDE2"/>
<path d="M283.671 208.752C283.234 208.752 282.866 208.453 282.774 208.016C282.659 207.51 282.981 207.027 283.487 206.912L293.191 204.819L287.281 155.231C287.212 154.725 287.58 154.265 288.086 154.196C288.592 154.127 289.052 154.495 289.121 155.001L295.146 205.44C295.192 205.923 294.893 206.36 294.433 206.452L283.901 208.706C283.809 208.752 283.74 208.752 283.671 208.752Z" fill="#A0DDE2"/>
<path d="M219.692 243.758C219.278 243.758 218.91 243.482 218.795 243.068C218.68 242.585 218.956 242.079 219.462 241.941L288.707 224.254C289.213 224.116 289.696 224.415 289.834 224.921C289.949 225.404 289.673 225.91 289.167 226.048L219.922 243.735C219.853 243.735 219.784 243.758 219.692 243.758Z" fill="#F6C8E2"/>
<path d="M161.234 265.217C160.935 265.217 160.636 265.079 160.475 264.803C160.199 264.389 160.314 263.814 160.728 263.515L172.709 255.488L160.59 243.482C160.222 243.114 160.222 242.539 160.59 242.171C160.958 241.803 161.533 241.803 161.9 242.171L174.825 254.959C175.032 255.143 175.124 255.419 175.101 255.695C175.078 255.971 174.917 256.224 174.687 256.362L161.762 265.01C161.601 265.148 161.418 265.217 161.234 265.217Z" fill="#A0DDE2"/>
<path d="M177.194 104.723C177.171 104.263 176.849 103.895 176.389 103.826L158.75 101.457C158.474 101.411 158.198 101.503 158.014 101.687C157.807 101.871 157.692 102.147 157.715 102.4L160.314 163.074C160.337 163.442 160.567 163.764 160.912 163.902C161.027 163.948 161.119 163.971 161.234 163.971C161.487 163.971 161.739 163.879 161.9 163.672L172.042 152.862L177.148 160.82C177.378 161.165 177.792 161.326 178.205 161.211C178.596 161.096 178.872 160.728 178.849 160.291L177.194 104.723Z" fill="#000200"/>
<path d="M242 206.475C241.08 206.475 240.252 206.268 239.608 205.762C238.665 205.026 238.251 204.037 238.366 202.887C238.803 198.793 246.507 193.365 253.935 189.8C254.188 189.685 254.464 189.685 254.717 189.8C254.97 189.915 255.154 190.145 255.223 190.398L257.201 197.873C257.293 198.218 257.178 198.609 256.879 198.839C255.062 200.288 246.967 206.475 242 206.475ZM253.751 191.962C246.254 195.711 240.505 200.403 240.229 203.094C240.183 203.6 240.344 203.968 240.781 204.313C242.897 205.946 250.371 201.599 255.292 197.781L253.751 191.962Z" fill="#000200"/>
<path d="M107.489 183.797C107.213 183.797 106.937 183.682 106.776 183.452C106.592 183.222 106.523 182.923 106.592 182.647L117.401 139.545C117.493 139.177 117.792 138.924 118.16 138.855L135.477 136.141C135.73 136.095 136.006 136.164 136.213 136.348C136.42 136.509 136.535 136.762 136.558 137.038L138.052 182.003C138.052 182.256 137.96 182.486 137.799 182.67C137.638 182.854 137.408 182.946 137.156 182.969L107.535 183.797C107.512 183.797 107.489 183.797 107.489 183.797ZM119.057 140.58L108.685 181.911L136.167 181.129L134.741 138.119L119.057 140.58Z" fill="#000200"/>
<path d="M180.689 106.264C180.321 106.264 179.976 106.034 179.838 105.689C179.654 105.206 179.884 104.677 180.344 104.493L289.604 61.023C289.88 60.908 290.179 60.9311 290.409 61.0921C290.662 61.2301 290.823 61.4831 290.846 61.7821L294.249 91.659C294.318 92.165 293.95 92.625 293.444 92.671C292.938 92.717 292.478 92.372 292.432 91.866L289.167 63.185L181.034 106.218C180.919 106.241 180.804 106.264 180.689 106.264Z" fill="#000200"/>
<path d="M92.886 143.409C92.725 143.409 92.564 143.363 92.426 143.294L68.555 129.586C68.256 129.402 68.072 129.08 68.095 128.735C68.118 128.39 68.325 128.068 68.6469 127.93L92.518 117.764C92.978 117.557 93.5299 117.787 93.7369 118.247C93.9438 118.707 93.7139 119.259 93.2539 119.466L71.0846 128.896L93.3459 141.684C93.7829 141.937 93.9438 142.512 93.6909 142.949C93.5069 143.248 93.2079 143.409 92.886 143.409Z" fill="#A0DDE2"/>
<path d="M181.701 99.7319C181.195 99.7319 180.781 99.3179 180.781 98.8119C180.781 98.3059 181.195 97.8919 181.701 97.8919C184.277 97.8919 186.346 97.2019 187.358 96.0059C187.956 95.3159 188.163 94.4419 187.979 93.4069C187.565 90.9459 182.345 89.8418 180.551 89.6578C180.091 89.6118 179.723 89.2208 179.723 88.7378V76.8009C179.723 76.2949 180.137 75.8809 180.643 75.8809C181.149 75.8809 181.563 76.2949 181.563 76.8009V87.9099C183.748 88.2549 189.175 89.4739 189.773 93.0849C190.026 94.6489 189.681 96.0749 188.738 97.1789C187.404 98.8118 184.829 99.7319 181.701 99.7319Z" fill="#000200"/>
<path d="M190.877 74.248V76.87C190.877 80.228 196.097 80.228 196.097 76.87V74.271C196.097 70.913 190.877 70.89 190.877 74.248Z" fill="#000200"/>
<path d="M156.013 74.248V76.87C156.013 80.228 161.234 80.228 161.234 76.87V74.271C161.234 70.913 156.013 70.89 156.013 74.248Z" fill="#000200"/>
<path d="M158.842 62.1499C156.726 62.4719 154.656 62.9089 152.656 63.6449C151.092 64.2199 152.265 66.5429 153.828 65.9679C155.622 65.3239 157.508 64.9789 159.394 64.7029C161.05 64.4499 160.498 61.8969 158.842 62.1499Z" fill="#000200"/>
<path d="M197.224 62.6789C195.637 62.4719 194.005 62.5409 192.441 62.2189C190.808 61.8738 189.98 64.3349 191.613 64.6799C193.407 65.0479 195.223 65.0249 197.04 65.2779C198.719 65.5079 198.88 62.8859 197.224 62.6789Z" fill="#000200"/>
<path d="M241.701 70.2459C237.768 62.9779 230.041 58.7229 221.946 59.6429C221.854 50.5809 220.29 39.4029 209.735 34.0439C208.309 31.6979 206.584 29.5819 204.583 27.6959C198.512 19.7149 187.519 15.8049 171.375 15.8049C154.633 15.8049 143.043 19.4619 136.236 27.0979C124.254 28.9379 115.193 38.1379 113.353 50.5809C97.1634 45.6819 81.0424 53.0649 69.7278 64.9329C63.7715 71.1659 58.1372 80.8259 59.839 89.0829L135.799 99.2719C135.822 99.2489 135.822 99.2259 135.822 99.2259C135.822 99.1569 135.845 99.0649 135.845 98.9959C136.075 98.8349 136.236 98.5589 136.236 98.2599C136.259 93.7059 135.04 90.0949 134.971 89.9339C134.833 89.5429 134.511 89.2899 134.051 89.3129C129.451 89.4969 125.818 88.4619 123.587 86.2999C121.54 84.3219 121.218 82.0449 121.218 80.8719C121.218 79.5379 121.586 77.5829 123.334 75.9269C126.163 73.2359 131.774 72.0399 139.593 72.4309C139.961 72.4539 140.628 72.1089 141.295 71.8789C153.805 66.4049 159.003 36.1829 159.003 36.1829C164.453 41.2199 194.74 51.3169 208.47 53.2259C208.516 55.2039 208.539 57.1359 208.585 59.0219C208.838 71.7869 208.907 84.5289 208.608 93.9359C208.585 94.4419 209.85 93.5219 209.827 93.6829C209.781 94.3269 212.655 92.5559 216.197 91.1529L244.368 79.9519C244.184 76.6399 243.356 73.3509 241.701 70.2459Z" fill="#000200"/>
<path d="M157.968 85.587C156.197 85.587 154.403 85.173 152.748 84.345C148.355 82.16 145.825 77.675 145.779 72.063C145.779 71.557 146.193 71.143 146.699 71.143C147.205 71.143 147.619 71.557 147.619 72.063C147.642 76.962 149.804 80.826 153.552 82.689C156.749 84.276 160.544 84.046 163.165 82.068C166.178 79.814 167.305 75.743 166.408 70.614C166.316 70.108 166.661 69.625 167.144 69.533C167.65 69.464 168.133 69.786 168.225 70.269C169.628 78.158 166.362 81.953 164.292 83.517C162.498 84.897 160.268 85.587 157.968 85.587Z" fill="#000200"/>
<path d="M194.924 84.0919C193.384 84.0919 191.843 83.7239 190.394 82.9879C186.3 80.9179 183.955 76.3409 183.955 70.4299C183.955 69.9239 184.369 69.5099 184.875 69.5099C185.381 69.5099 185.795 69.9239 185.795 70.4299C185.795 75.6049 187.772 79.5839 191.222 81.3319C193.936 82.7119 197.155 82.4819 199.593 80.6879C202.559 78.5259 203.824 74.4779 203.042 69.6249C202.95 69.1189 203.295 68.6359 203.801 68.5669C204.307 68.4979 204.767 68.8199 204.859 69.3259C205.756 74.8919 204.215 79.5839 200.674 82.1829C198.972 83.4709 196.948 84.0919 194.924 84.0919Z" fill="#000200"/>
<path d="M167.673 76.4789C167.351 76.4789 167.029 76.2949 166.868 75.9959C166.615 75.5589 166.776 74.9839 167.236 74.7309C167.627 74.5239 176.895 69.5329 185.312 73.5349C185.772 73.7419 185.979 74.2939 185.749 74.7539C185.519 75.2139 184.99 75.4209 184.507 75.1909C176.964 71.6029 168.202 76.2949 168.133 76.3409C167.972 76.4559 167.811 76.4789 167.673 76.4789Z" fill="#000200"/>
<path d="M376.326 167.467C365.632 105.252 343.371 93.384 320.926 89.842C290.593 85.035 268.561 97.524 255.476 126.987C248.531 142.627 249.198 146.215 250.785 147.687C252.348 149.159 254.947 148.055 256.764 147.089C260.811 144.95 262.099 141.408 263.341 137.981C264.008 136.118 264.721 134.186 265.871 132.461C265.871 132.392 265.871 132.3 265.894 132.208C266.147 131.449 266.4 130.667 266.607 129.885C266.607 129.862 266.63 129.816 266.63 129.793C266.262 129.563 265.756 129.609 265.434 129.954C263.41 132.231 262.467 134.83 261.57 137.337C260.351 140.718 259.293 143.616 255.867 145.433C253.107 146.905 252.256 146.537 252.026 146.307C251.359 145.686 250.532 142.627 257.155 127.7C269.849 99.111 291.214 86.967 320.627 91.636C342.405 95.086 364 106.701 374.509 167.766C379.546 197.114 375.958 219.7 363.839 234.949C347.58 255.396 318.925 259.283 298.757 260.433C298.251 260.456 297.86 260.893 297.883 261.399C297.906 261.882 298.32 262.273 298.803 262.273C298.826 262.273 298.849 262.273 298.849 262.273C319.362 261.1 348.546 257.121 365.264 236.099C377.752 220.436 381.454 197.344 376.326 167.467Z" fill="#000200"/>
<path d="M273.161 144.421C273.092 144.421 273.023 144.421 272.954 144.398C267.894 143.248 264.974 141.316 264.008 138.464C262.467 133.933 265.779 127.309 275.46 115.579C275.782 115.188 276.357 115.119 276.771 115.464C277.162 115.786 277.208 116.361 276.886 116.775C267.802 127.769 264.468 134.094 265.756 137.889C266.492 140.074 268.998 141.615 273.368 142.627C273.874 142.742 274.173 143.225 274.058 143.731C273.943 144.122 273.575 144.421 273.161 144.421Z" fill="#000200"/>
<path d="M281.509 148.009C281.486 148.009 281.463 148.009 281.44 148.009C276.081 147.549 272.77 145.709 271.62 142.512C268.929 135.198 278.703 124.25 283.027 119.903C283.395 119.535 283.969 119.535 284.337 119.903C284.705 120.271 284.705 120.846 284.337 121.214C275.966 129.655 271.758 137.567 273.345 141.891C274.242 144.329 277.024 145.778 281.601 146.169C282.107 146.215 282.475 146.652 282.452 147.158C282.383 147.641 281.992 148.009 281.509 148.009Z" fill="#000200"/>
<path d="M307.381 214.778C307.243 214.778 307.174 214.778 307.174 214.778C306.668 214.755 306.277 214.318 306.3 213.812C306.323 213.306 306.783 212.915 307.266 212.938C307.956 212.984 323.985 213.49 325.456 190.582C326.974 167.168 322.421 147.457 312.67 135.106C311.359 133.427 309.381 132.415 307.243 132.3C305.081 132.185 302.965 133.013 301.447 134.554C297.63 138.441 294.916 140.856 293.352 141.707C292.432 142.213 291.903 142.719 291.834 143.133C291.742 143.754 292.57 144.674 293.329 145.502C293.996 146.215 294.663 146.974 295.054 147.802C295.675 149.136 295.077 150.769 293.605 151.896C291.49 153.483 287.465 154.012 283.073 150.263C275.943 144.168 280.543 136.831 288.155 124.71C288.431 124.273 289.006 124.158 289.42 124.411C289.857 124.687 289.972 125.262 289.719 125.676C281.624 138.556 278.588 143.961 284.268 148.837C287.833 151.896 290.915 151.597 292.478 150.401C293.237 149.826 293.605 149.067 293.375 148.561C293.122 147.986 292.524 147.342 291.972 146.744C290.938 145.617 289.765 144.352 290.018 142.834C290.179 141.799 290.984 140.902 292.455 140.074C293.421 139.545 295.537 137.912 300.136 133.243C302.022 131.311 304.667 130.299 307.335 130.437C310.002 130.575 312.463 131.863 314.119 133.956C324.169 146.675 328.837 166.846 327.296 190.697C325.801 214.042 309.427 214.778 307.381 214.778Z" fill="#000200"/>
<path d="M252.118 122.479C250.831 122.479 249.474 122.134 248.163 121.237C246.921 120.386 246.76 119.328 246.829 118.569C247.473 111.715 273.253 100.261 276.173 98.973C276.633 98.766 278.588 97.731 278.795 98.214C279.002 98.674 277.392 100.468 276.909 100.675C261.133 107.575 248.968 115.349 248.669 118.753C248.646 119.029 248.692 119.351 249.221 119.719C252.141 121.72 255.246 120.064 257.753 118.73C258.535 118.316 259.224 117.948 259.845 117.718C260.328 117.557 260.857 117.81 261.018 118.293C261.179 118.776 260.926 119.305 260.443 119.466C259.96 119.627 259.339 119.972 258.604 120.363C256.879 121.237 254.579 122.479 252.118 122.479Z" fill="#000200"/>
<path d="M338.588 155.622C332.723 155.622 326.974 154.357 322.306 151.758C321.869 151.505 321.708 150.953 321.961 150.493C322.214 150.056 322.766 149.895 323.226 150.125C333.137 155.668 348.982 154.679 358.526 147.917C362.459 145.134 366.897 140.258 365.632 132.829C365.54 132.323 365.885 131.84 366.391 131.771C366.897 131.702 367.38 132.024 367.449 132.53C368.553 139.062 365.77 145.065 359.584 149.435C353.812 153.529 346.108 155.622 338.588 155.622Z" fill="#000200"/>
<path d="M62.9896 254.476C62.8286 254.476 62.6676 254.43 62.5067 254.338C48.0414 245.713 38.9576 233.822 35.485 218.941C30.8626 199.23 37.5547 179.335 45.3278 167.283C46.5236 165.42 47.5125 163.166 48.4784 161.004C50.2492 156.979 51.928 153.184 54.8486 151.574C55.2856 151.321 55.8605 151.482 56.1134 151.942C56.3664 152.379 56.1824 152.954 55.7455 153.184C53.3538 154.495 51.813 158.014 50.1802 161.74C49.1913 163.994 48.1794 166.317 46.8916 168.295C39.3255 180.025 32.8173 199.391 37.3018 218.527C40.6594 232.902 49.4673 244.402 63.4725 252.751C63.9095 253.004 64.0475 253.579 63.7945 254.016C63.6105 254.315 63.3116 254.476 62.9896 254.476Z" fill="#000200"/>
<path d="M60.322 216.135C59.977 216.135 59.678 215.951 59.494 215.629C56.6424 210.178 57.8382 206.061 59.908 204.037C61.9777 202.013 65.0824 201.668 67.796 203.163C72.6024 205.785 75.0631 205.417 75.5691 204.543C76.259 203.301 74.4652 199.207 66.9911 194.998C63.7945 193.181 60.8509 192.813 58.2292 193.871C54.3657 195.435 51.1921 200.104 49.0533 207.372C48.9154 207.855 48.3864 208.131 47.9035 207.993C47.4205 207.855 47.1446 207.326 47.2826 206.843C49.5823 199 53.1238 193.917 57.5393 192.146C60.7129 190.858 64.1855 191.272 67.888 193.365C75.868 197.896 78.6047 202.864 77.1789 205.417C76.167 207.257 72.9244 208.062 66.9221 204.773C64.9214 203.669 62.6677 203.899 61.1958 205.348C59.609 206.912 58.7581 210.201 61.1269 214.778C61.3568 215.238 61.1958 215.79 60.7359 216.02C60.5979 216.089 60.4599 216.135 60.322 216.135Z" fill="#000200"/>
<path d="M44.3849 200.15C44.2929 200.15 44.2009 200.127 44.109 200.104C43.626 199.943 43.3501 199.437 43.488 198.954C45.5578 192.238 49.2373 187.408 54.1357 184.97C58.4362 182.831 63.5186 182.67 68.463 184.487C76.167 187.316 80.1455 189.984 80.5825 192.675C80.7205 193.549 80.5595 194.837 78.9957 196.125C76.259 198.356 72.2345 198.264 72.0505 198.241C71.5446 198.218 71.1306 197.804 71.1536 197.298C71.1766 196.792 71.5906 196.447 72.0965 196.401C72.1195 196.401 75.6381 196.47 77.8228 194.699C78.9037 193.825 78.7887 193.204 78.7427 192.997C78.6047 192.1 77.2249 189.685 67.7961 186.235C63.3346 184.602 58.7582 184.74 54.9176 186.649C50.4792 188.857 47.1216 193.296 45.2128 199.529C45.1438 199.897 44.7759 200.15 44.3849 200.15Z" fill="#000200"/>
<path d="M41.5562 193.319C41.4183 193.319 41.2803 193.296 41.1653 193.227C40.7054 193.02 40.4984 192.468 40.7284 192.008C49.7202 172.872 56.7574 173.953 63.5875 174.988C70.0497 175.977 79.6396 179.082 79.8925 183.682C80.0765 187.27 76.8799 188.88 75.1781 189.225C74.6722 189.317 74.1892 188.995 74.0972 188.512C73.9823 188.006 74.3042 187.523 74.8102 187.431C74.9481 187.408 78.2137 186.672 78.0528 183.797C77.9148 180.945 70.3487 177.909 63.3806 176.851C56.8954 175.862 50.8241 174.942 42.4071 192.813C42.2232 193.135 41.9012 193.319 41.5562 193.319Z" fill="#000200"/>
<path d="M39.9234 180.83C39.7855 180.83 39.6475 180.807 39.5325 180.738C39.0725 180.531 38.8656 179.979 39.0955 179.519C47.1905 162.292 55.1246 163.833 61.4948 165.075C62.2307 165.213 62.9436 165.351 63.6335 165.466C70.0267 166.432 79.6395 169.56 79.8695 174.16C80.0535 177.748 76.8569 179.358 75.1551 179.703C74.6492 179.795 74.1662 179.496 74.0742 178.99C73.9592 178.484 74.2812 178.001 74.7871 177.909C74.9251 177.886 78.1907 177.15 78.0297 174.275C77.8918 171.423 70.3257 168.387 63.3575 167.329C62.6446 167.214 61.9087 167.076 61.1498 166.938C55.1016 165.765 48.2714 164.408 40.7743 180.347C40.6134 180.623 40.2684 180.83 39.9234 180.83Z" fill="#000200"/>
</svg>
