<svg width="391" height="284" viewBox="0 0 391 284" fill="none" xmlns="http://www.w3.org/2000/svg">
<path d="M154.452 40.1681C150.788 36.4651 147.123 32.7621 143.482 29.0361C142.667 28.2081 141.401 29.4961 142.215 30.3241C145.879 34.0271 149.544 37.7301 153.186 41.4561C154 42.2841 155.267 40.9961 154.452 40.1681Z" fill="#F674B4"/>
<path d="M227.335 19.744C225.186 22.274 223.037 24.781 220.888 27.311C220.119 28.208 221.431 29.496 222.177 28.599C224.326 26.069 226.475 23.562 228.624 21.032C229.393 20.158 228.081 18.847 227.335 19.744Z" fill="#7BAEED"/>
<path d="M246.878 33.2451C241.54 35.7061 236.224 38.1901 230.886 40.6511C229.823 41.1571 230.75 42.7211 231.813 42.2381C237.152 39.7771 242.468 37.2931 247.806 34.8321C248.892 34.3261 247.964 32.7621 246.878 33.2451Z" fill="#F674B4"/>
<path d="M234.347 172.717C219.304 174.856 220.503 197.695 237.129 197.58C255.994 197.442 252.941 170.049 234.347 172.717Z" fill="#FFCB56"/>
<path d="M145.336 186.356L147.983 194.383L155.561 188.242L145.336 186.356Z" fill="#F674B4"/>
<path d="M26.2639 100.727L34.0679 120.484L46.803 104.292L26.2639 100.727Z" fill="#7BAEED"/>
<path d="M339.372 60.7529L321.842 83.1779L343.534 102.889L365.024 83.1779L339.372 60.7529Z" fill="#F674B4"/>
<path d="M328.899 77.566H317.702L315.915 90.9521L326.434 94.494L328.899 77.566Z" fill="#FFCB56"/>
<path d="M49.2008 69.1711C48.7031 72.7131 48.2055 76.2321 47.7078 79.7741C47.5495 80.9241 49.2686 81.4301 49.4496 80.2571C49.9472 76.7151 50.4449 73.1961 50.9425 69.6541C51.1009 68.5041 49.3591 67.9981 49.2008 69.1711Z" fill="#FFCB56"/>
<path d="M333.061 50.7941C332.88 49.6441 331.139 50.1271 331.32 51.2771C331.568 52.7951 331.817 54.3131 332.066 55.8311C332.247 56.9811 333.989 56.4981 333.808 55.3481C333.559 53.8301 333.31 52.3121 333.061 50.7941Z" fill="#7BAEED"/>
<path d="M370.204 95.575C367.467 95.828 364.73 96.081 362.015 96.334C360.861 96.449 360.861 98.266 362.015 98.151C364.752 97.898 367.489 97.645 370.204 97.392C371.335 97.3 371.357 95.483 370.204 95.575Z" fill="#7BAEED"/>
<path d="M37.2573 85.041C35.7644 84.029 34.2714 83.017 32.7785 82.028C31.8058 81.384 30.901 82.948 31.8737 83.615C33.3666 84.627 34.8596 85.639 36.3525 86.628C37.3252 87.272 38.23 85.685 37.2573 85.041Z" fill="#FFCB56"/>
<path d="M127.15 44.0319C102.268 50.8859 79.5344 64.0189 60.9859 82.2349C60.1489 83.0629 61.4156 84.3509 62.2526 83.5229C80.5976 65.5369 103.037 52.5879 127.625 45.8029C128.733 45.4809 128.258 43.7329 127.15 44.0319Z" fill="#7BAEED"/>
<path d="M305.352 52.45C295.761 44.193 284.631 38.42 272.394 35.43C271.263 35.154 270.788 36.925 271.919 37.201C283.84 40.122 294.72 45.688 304.062 53.738C304.944 54.497 306.234 53.209 305.352 52.45Z" fill="#7BAEED"/>
<path d="M267.757 279.299C267.282 279.299 266.875 278.908 266.852 278.402L263.572 161.424C263.549 160.918 263.957 160.504 264.454 160.481C264.929 160.481 265.359 160.872 265.382 161.378L268.662 278.356C268.684 278.862 268.277 279.276 267.779 279.299C267.757 279.299 267.757 279.299 267.757 279.299Z" fill="#000200"/>
<path d="M122.943 283.692C122.445 283.692 122.038 283.278 122.038 282.772V265.131C122.038 264.625 122.445 264.211 122.943 264.211C123.44 264.211 123.847 264.625 123.847 265.131V282.772C123.847 283.301 123.44 283.692 122.943 283.692Z" fill="#000200"/>
<path d="M177.819 215.819C177.796 215.819 177.774 215.819 177.751 215.819L152.213 213.657C151.964 213.634 151.738 213.519 151.602 213.335C151.444 213.151 151.376 212.898 151.399 212.645L153.005 197.856C153.05 197.396 153.435 197.051 153.887 197.051H177.819C178.317 197.051 178.724 197.465 178.724 197.971V214.922C178.724 215.175 178.611 215.428 178.43 215.589C178.249 215.727 178.023 215.819 177.819 215.819ZM153.254 211.909L176.914 213.91V198.868H154.679L153.254 211.909Z" fill="#000200"/>
<path d="M242.128 191.278C233.103 191.278 228.511 184.769 228.081 178.697C227.651 172.74 230.999 165.794 239.346 164.598C245.182 163.747 250.271 165.771 253.303 170.095C256.243 174.281 256.718 180.031 254.501 184.447C252.307 188.817 247.942 191.255 242.241 191.301C242.219 191.278 242.173 191.278 242.128 191.278ZM239.595 166.415C232.379 167.45 229.506 173.43 229.868 178.582C230.253 184.01 234.211 189.461 242.128 189.461C242.173 189.461 242.219 189.461 242.264 189.461C247.263 189.415 251.063 187.345 252.941 183.619C254.863 179.824 254.434 174.81 251.877 171.176C250.317 168.945 246.652 165.403 239.595 166.415Z" fill="#000200"/>
<path d="M119.188 188.794C118.554 184.194 116.451 177.639 119.007 172.487C122.648 165.173 128.846 157.1 131.176 159.906C134.999 164.483 145.54 231.068 143.595 249.951C141.649 268.834 123.621 278.402 123.621 278.402L122.965 265.154C122.965 265.154 131.719 256.828 132.194 240.613C132.669 224.398 122.875 178.766 122.875 178.766L119.188 188.794Z" fill="#000200"/>
<path d="M274.701 248.502C273.367 254.988 270.539 260.278 267.327 264.487C267.214 262.67 267.101 260.83 266.988 259.013C266.377 249.606 263.64 165.311 264.771 162.505C263.074 153.696 268.888 164.069 271.828 170.762C274.317 176.42 277.303 183.78 276.873 191.025C277.348 213.358 276.873 237.968 274.701 248.502Z" fill="#000200"/>
<path d="M107.357 219.775C106.86 219.775 106.452 219.361 106.452 218.855L106.407 149.326C106.407 144.059 110.456 139.827 115.614 139.689C137.759 139.114 137.849 139.229 138.234 139.712C138.415 139.942 138.483 140.241 138.415 140.517C138.302 141 137.804 141.322 137.329 141.184C137.306 141.184 137.284 141.161 137.261 141.161C136.65 141.115 133.212 141.046 115.659 141.529C111.474 141.644 108.194 145.071 108.194 149.326L108.239 218.855C108.262 219.361 107.855 219.775 107.357 219.775Z" fill="#000200"/>
<path d="M270.765 181.572C270.268 181.572 269.861 181.158 269.861 180.652V147.624C269.861 143.323 266.422 139.827 262.192 139.827C261.695 139.827 261.287 139.413 261.287 138.907C261.287 138.401 261.695 137.987 262.192 137.987C267.418 137.987 271.648 142.311 271.648 147.601V180.629C271.648 181.158 271.263 181.572 270.765 181.572Z" fill="#000200"/>
<path d="M111.293 283.692C110.795 283.692 110.388 283.278 110.388 282.772V275.573C110.388 275.067 110.795 274.653 111.293 274.653C111.791 274.653 112.198 275.067 112.198 275.573V282.772C112.198 283.301 111.791 283.692 111.293 283.692Z" fill="#000200"/>
<path d="M248.032 138.93C247.172 125.107 236.36 126.832 236.36 126.832C233.352 118.575 225.57 117.54 225.57 117.54C224.914 107.443 219.96 97.0008 198.426 98.1278C176.892 99.2548 167.549 108.616 168.296 123.221C159.316 123.336 156.104 128.856 156.149 132.49C154.407 128.442 153.932 123.612 153.887 118.046C153.615 93.3668 165.333 85.2708 209.827 84.8338C246.924 84.4658 250.565 92.5618 251.629 111.1C252.33 123.796 252.42 132.881 248.032 138.93Z" fill="#000200"/>
<path d="M211.93 149.579C161.465 149.579 153.208 140.287 152.982 118.069C152.869 107.397 154.973 100.382 159.836 95.3448C167.391 87.5018 181.868 84.1898 209.804 83.9368V84.8568V83.9368C247.037 83.5918 251.402 91.9178 252.511 111.054C253.28 124.624 253.37 134.721 247.489 141.069C241.947 147.026 231.316 149.579 211.93 149.579ZM209.827 85.7538C182.411 86.0068 168.319 89.1578 161.125 96.6098C156.624 101.279 154.656 107.88 154.769 118.046C154.995 138.24 160.696 147.739 211.93 147.739C230.773 147.739 241.02 145.37 246.177 139.804C251.583 133.985 251.47 124.256 250.724 111.146C249.751 94.2178 247.467 85.4088 209.827 85.7538Z" fill="#000200"/>
<path d="M177.796 135.526C177.683 135.526 177.548 135.503 177.435 135.457C176.982 135.25 176.779 134.721 176.982 134.261C180.172 126.832 188.156 108.593 188.156 108.593C188.36 108.133 188.88 107.926 189.31 108.11C189.559 108.202 213.83 118.23 225.412 116.413C225.909 116.344 226.362 116.689 226.43 117.172C226.498 117.678 226.181 118.138 225.683 118.207C214.713 119.932 193.879 111.905 189.446 110.134C187.862 113.745 181.416 128.488 178.611 134.997C178.475 135.319 178.158 135.526 177.796 135.526Z" fill="#000200"/>
<path d="M167.527 142.633C167.097 142.633 166.713 142.311 166.645 141.874C166.351 139.965 166.78 138.24 167.889 136.883C169.653 134.767 173.001 133.709 177.796 133.709C178.294 133.709 178.701 134.123 178.701 134.629C178.701 135.135 178.294 135.549 177.796 135.549C173.589 135.549 170.648 136.423 169.246 138.079C168.454 139.022 168.183 140.195 168.409 141.598C168.477 142.104 168.16 142.564 167.663 142.656C167.617 142.633 167.572 142.633 167.527 142.633Z" fill="#000200"/>
<path d="M206.207 145.393C205.71 145.393 205.303 144.979 205.303 144.473C205.303 143.967 205.71 143.553 206.207 143.553C207.881 143.553 209.261 143.093 209.917 142.334C210.279 141.897 210.392 141.368 210.302 140.724C210.053 139.275 206.909 138.47 205.416 138.309C204.963 138.263 204.624 137.872 204.624 137.412V129.04C204.624 128.534 205.031 128.12 205.529 128.12C206.026 128.12 206.434 128.534 206.434 129.04V136.607C208.107 136.906 211.681 137.849 212.089 140.425C212.292 141.598 212.021 142.679 211.32 143.507C210.279 144.726 208.469 145.393 206.207 145.393Z" fill="#000200"/>
<path d="M193.631 124.417C192.16 124.578 190.735 124.831 189.31 125.268C188.202 125.613 188.948 127.269 190.057 126.924C191.301 126.533 192.613 126.349 193.925 126.211C195.078 126.073 194.784 124.279 193.631 124.417Z" fill="#000200"/>
<path d="M219.598 125.107C218.671 124.486 217.653 124.049 216.771 123.359C215.866 122.646 214.599 123.957 215.527 124.67C216.522 125.452 217.676 125.981 218.716 126.694C219.689 127.338 220.549 125.728 219.598 125.107Z" fill="#000200"/>
<path d="M226.792 148.429C226.294 148.429 225.887 148.015 225.887 147.532C225.819 138.93 225.593 131.616 224.665 117.609C223.783 104.246 215.21 98.1738 198.471 99.0478C186.89 99.6458 178.611 102.659 173.861 108.018C170.445 111.882 168.861 116.965 169.178 123.175C169.201 123.681 168.816 124.118 168.319 124.141C167.776 124.141 167.391 123.773 167.369 123.267C167.029 116.574 168.748 111.031 172.503 106.799C177.593 101.072 186.279 97.8519 198.358 97.2309C216.047 96.3109 225.502 103.119 226.43 117.494C227.357 131.501 227.583 139.114 227.651 147.532C227.697 148.015 227.312 148.429 226.792 148.429C226.814 148.429 226.792 148.429 226.792 148.429Z" fill="#000200"/>
<path d="M125.793 172.763C125.657 172.763 125.521 172.74 125.408 172.671C124.956 172.464 124.775 171.912 124.978 171.452L125.544 170.256C129.005 162.988 139.523 140.908 138.867 120.622C138.234 101.486 138.415 88.3299 146.038 80.1879C154.226 71.4479 170.196 68.2969 209.352 67.6759C241.902 67.0549 260.405 69.4009 262.622 125.084C262.758 128.649 262.871 131.961 262.961 135.043C263.323 146.842 263.572 155.375 265.631 162.229C265.766 162.712 265.517 163.218 265.042 163.379C264.567 163.517 264.07 163.264 263.911 162.781C261.785 155.697 261.536 147.072 261.174 135.112C261.084 132.03 260.971 128.718 260.835 125.153C258.573 68.5269 239.007 68.9179 209.397 69.4929C170.807 70.0909 155.154 73.1039 147.35 81.4299C140.202 89.0429 140.066 101.877 140.677 120.553C141.355 141.276 130.679 163.678 127.173 171.038L126.607 172.234C126.449 172.579 126.132 172.763 125.793 172.763Z" fill="#000200"/>
<path d="M156.149 132.513L155.244 132.49C155.221 130.282 156.172 127.982 157.913 126.165C159.565 124.44 162.709 122.37 168.296 122.301C168.748 122.301 169.201 122.692 169.201 123.198C169.201 123.704 168.816 124.118 168.319 124.118C163.342 124.187 160.628 125.958 159.203 127.43C157.823 128.856 157.031 130.742 157.054 132.467L156.149 132.513Z" fill="#000200"/>
<path d="M247.195 140.333C247.195 140.402 247.195 140.448 247.218 140.517C247.761 139.988 248.349 139.482 248.959 139.022C248.959 138.976 248.959 138.93 248.959 138.884C248.665 134.008 247.127 130.42 244.413 128.212C241.631 125.935 238.418 125.797 236.993 125.866C233.668 117.793 226.045 116.666 225.729 116.62C225.231 116.551 224.779 116.896 224.711 117.402C224.643 117.908 224.982 118.368 225.48 118.437C225.774 118.483 232.763 119.541 235.568 127.154C235.727 127.568 236.111 127.798 236.541 127.729C236.586 127.729 240.319 127.177 243.304 129.638C245.589 131.524 246.901 134.652 247.172 138.999C247.172 139.436 247.195 139.873 247.195 140.333Z" fill="#000200"/>
<path d="M192.025 142.817C190.78 142.817 189.491 142.518 188.315 141.92C185.193 140.333 183.384 137.113 183.384 133.065C183.384 132.559 183.791 132.145 184.288 132.145C184.786 132.145 185.193 132.559 185.193 133.065C185.216 136.4 186.641 139.022 189.129 140.287C191.255 141.368 193.744 141.184 195.485 139.873C197.476 138.355 198.222 135.595 197.612 132.099C197.521 131.593 197.861 131.133 198.336 131.041C198.833 130.949 199.286 131.294 199.376 131.777C200.371 137.458 198.041 140.195 196.549 141.322C195.259 142.311 193.653 142.817 192.025 142.817Z" fill="#000200"/>
<path d="M217.495 141.782C216.386 141.782 215.278 141.529 214.26 140.977C211.342 139.482 209.691 136.17 209.691 131.938C209.691 131.432 210.098 131.018 210.596 131.018C211.093 131.018 211.5 131.432 211.5 131.938C211.5 135.457 212.812 138.171 215.097 139.344C216.884 140.264 218.988 140.103 220.594 138.93C222.562 137.481 223.399 134.744 222.878 131.432C222.811 130.926 223.127 130.466 223.625 130.374C224.123 130.305 224.575 130.627 224.665 131.133C225.299 135.135 224.213 138.516 221.657 140.402C220.39 141.322 218.965 141.782 217.495 141.782Z" fill="#000200"/>
<path d="M198.697 136.446C198.381 136.446 198.064 136.285 197.906 135.963C197.657 135.526 197.838 134.974 198.268 134.721C198.539 134.56 205.054 131.018 210.958 133.87C211.41 134.077 211.591 134.629 211.387 135.089C211.184 135.549 210.641 135.733 210.188 135.526C205.099 133.065 199.195 136.285 199.127 136.331C198.992 136.4 198.833 136.446 198.697 136.446Z" fill="#000200"/>
<path d="M213.921 132.283L213.74 134.1C213.491 136.446 217.065 136.814 217.314 134.491L217.495 132.674C217.721 130.328 214.147 129.937 213.921 132.283Z" fill="#000200"/>
<path d="M189.695 132.858L189.514 134.675C189.265 137.021 192.839 137.389 193.088 135.066L193.269 133.249C193.517 130.903 189.943 130.512 189.695 132.858Z" fill="#000200"/>
<path d="M93.2875 229.481C92.066 229.481 90.7766 229.343 89.3968 229.021C80.6654 227.066 77.7248 212.116 74.3091 194.82C73.3591 189.967 72.3638 184.953 71.2102 180.077C71.0066 179.272 70.8256 178.513 70.6447 177.708C68.541 168.876 66.4599 160.504 63.7908 155.306C56.3261 140.655 43.0933 130.995 38.0942 129.937C37.3478 129.776 37.0085 129.868 36.9406 129.914C36.8275 130.19 36.443 131.869 41.5099 137.159C43.8171 139.551 44.36 143.093 42.935 146.175C41.804 148.636 41.3742 150.89 41.6682 152.914C41.7361 153.42 41.3968 153.88 40.9218 153.949C40.4241 154.018 39.9717 153.673 39.9039 153.19C39.5646 150.798 40.0396 148.176 41.3289 145.393C42.4373 143.001 42.0075 140.264 40.2432 138.424C36.081 134.077 34.475 131.041 35.3346 129.132C35.5155 128.741 36.0132 128.051 37.2799 128.005C37.3025 128.005 37.3478 128.005 37.3704 128.005C42.5278 128.005 57.4119 138.792 65.3968 154.455C68.1565 159.837 70.2828 168.324 72.4091 177.271C72.59 178.053 72.771 178.835 72.9746 179.617C74.1282 184.539 75.1235 189.576 76.0961 194.452C79.2403 210.437 82.2036 225.525 89.804 227.227C104.213 230.47 109.868 213.68 116.383 194.268C118.961 186.632 121.608 178.72 125.001 171.429C125.205 170.969 125.747 170.785 126.2 170.992C126.652 171.199 126.833 171.751 126.63 172.211C123.282 179.387 120.635 187.253 118.102 194.843C112.107 212.622 106.452 229.481 93.2875 229.481Z" fill="#000200"/>
<path d="M28.5712 151.005C28.4581 151.005 28.345 150.982 28.2319 150.936C23.1876 148.774 9.25354 143.829 5.31763 146.773C4.57116 147.348 4.25448 148.222 4.36758 149.464C4.41282 149.97 4.0509 150.407 3.55325 150.453C3.05561 150.499 2.62583 150.131 2.58059 149.625C2.35439 147.256 3.34967 145.945 4.25448 145.301C7.73799 142.702 16.017 144.68 22.0792 146.681C20.1338 145.784 18.0754 145.048 16.2205 144.381C12.3751 143.024 9.57022 142.035 8.98209 140.195C8.82375 139.712 8.75589 138.93 9.38926 137.987C13.099 132.444 34.95 140.954 41.5551 143.714C42.0075 143.898 42.2337 144.427 42.0528 144.91C41.8718 145.37 41.3289 145.6 40.8765 145.416C25.0877 138.861 12.737 136.239 10.8822 139.045C10.6334 139.413 10.6786 139.574 10.7012 139.643C11.0179 140.609 14.0943 141.713 16.8087 142.679C21.0386 144.174 26.3318 146.06 29.2724 149.51C29.5438 149.832 29.5664 150.292 29.3176 150.637C29.1367 150.867 28.8652 151.005 28.5712 151.005Z" fill="#000200"/>
<path d="M24.2281 153.857C22.8256 153.489 21.1291 152.937 19.3195 152.385C12.3299 150.177 4.41282 147.67 1.90198 150.614C0.77097 151.925 0.884071 153.972 2.24128 156.87C2.24128 156.893 2.2639 156.893 2.2639 156.916C2.78417 156.893 3.30443 156.916 3.80208 156.962C3.96042 156.709 3.98304 156.364 3.84732 156.088C2.85203 153.995 2.64845 152.5 3.23657 151.81C4.97832 149.763 13.2573 152.408 18.754 154.133C20.5862 154.708 22.3054 155.26 23.7531 155.651C24.2281 155.766 24.7257 155.49 24.8388 155.007C24.9972 154.478 24.7257 153.972 24.2281 153.857Z" fill="#000200"/>
<path d="M87.542 283.692C84.4656 283.692 81.2309 283.37 77.8153 282.68C44.066 275.803 38.0264 228.193 35.131 205.331C34.8596 203.169 34.6108 201.26 34.3845 199.673C33.9548 196.775 33.4571 194.015 32.9369 191.508C32.8238 190.864 32.688 190.243 32.5297 189.622C30.0867 178.674 26.8973 171.383 23.7531 169.566C20.1791 167.496 15.6777 166.3 11.6965 165.242C6.13195 163.77 1.74364 162.597 0.838833 159.538C0.567391 158.618 0.295951 157.284 1.15552 156.341C2.78417 154.57 7.01414 155.444 20.2017 158.457C20.6767 158.572 20.9934 159.055 20.8803 159.538C20.7672 160.021 20.2922 160.343 19.8172 160.228C10.6786 158.135 3.48539 156.479 2.49011 157.56C2.33176 157.744 2.35438 158.25 2.58059 158.986C3.19133 161.056 7.55703 162.229 12.1715 163.448C16.2432 164.529 20.8803 165.748 24.6579 167.956C29.5665 170.785 32.8011 182.469 34.2941 189.162C34.4524 189.783 34.6108 190.473 34.7239 191.14C35.2667 193.67 35.7644 196.453 36.1942 199.397C36.4204 201.007 36.6692 202.916 36.9406 205.101C39.7908 227.549 45.7173 274.285 78.1998 280.909C113.51 288.131 130.226 252.826 130.385 252.458C130.588 251.998 131.131 251.814 131.583 252.021C132.036 252.228 132.217 252.78 132.013 253.24C131.832 253.562 117.559 283.692 87.542 283.692Z" fill="#000200"/>
<path d="M33.3892 189.346C33.5702 189.99 33.6833 190.634 33.819 191.278C40.967 192.612 48.3864 192.405 55.5118 190.496C61.8907 188.771 68.4279 185.183 72.1376 179.847C71.934 179.042 71.7531 178.26 71.5721 177.478C67.7267 184.47 58.5655 188.334 50.8068 189.668C44.9708 190.68 39.0895 190.542 33.3892 189.346Z" fill="#000200"/>
<path d="M100.413 281.714C100.028 281.714 99.6663 281.461 99.5532 281.07C97.8341 275.366 91.9076 269.616 84.1263 266.12C74.3318 261.704 63.4515 261.658 54.3129 265.982C53.8605 266.189 53.3402 266.005 53.114 265.545C52.9105 265.085 53.0914 264.556 53.5438 264.326C63.1574 259.772 74.558 259.795 84.8501 264.441C93.1065 268.167 99.3949 274.331 101.272 280.541C101.408 281.024 101.159 281.53 100.684 281.691C100.594 281.691 100.503 281.714 100.413 281.714Z" fill="#000200"/>
<path d="M296.281 217.958C282.663 217.958 275.923 196.752 270.878 180.905L270.539 179.847C268.073 172.027 265.947 165.265 263.685 162.252C263.391 161.861 263.459 161.286 263.844 160.964C264.228 160.665 264.794 160.734 265.11 161.125C267.553 164.391 269.747 171.268 272.258 179.249L272.598 180.307C279.203 201.099 286.26 219.453 299.877 215.566C314.445 211.403 317.86 186.333 320.892 164.207L320.959 163.678C321.095 162.85 321.186 162.068 321.299 161.263C322.543 152.132 323.855 143.484 326.072 137.849C332.541 121.381 346.452 109.122 351.519 108.731C352.809 108.639 353.329 109.26 353.555 109.651C354.618 111.468 353.284 114.688 349.483 119.472C347.945 121.404 347.787 124.141 349.076 126.303C350.682 128.994 351.429 131.593 351.293 134.031C351.27 134.537 350.841 134.928 350.343 134.905C349.845 134.882 349.461 134.445 349.483 133.939C349.574 131.869 348.918 129.615 347.516 127.246C345.842 124.44 346.068 120.852 348.058 118.322C352.673 112.48 352.13 110.824 351.972 110.571C351.926 110.548 351.587 110.479 350.841 110.709C345.955 112.273 333.717 123.198 327.7 138.516C325.551 143.967 324.262 152.5 323.018 161.493C322.905 162.298 322.792 163.08 322.679 163.908L322.611 164.414C319.512 187.092 316.006 212.806 300.307 217.268C298.927 217.774 297.57 217.958 296.281 217.958Z" fill="#000200"/>
<path d="M362.309 130.834C362.06 130.834 361.811 130.719 361.631 130.535C361.359 130.213 361.336 129.753 361.563 129.408C364.164 125.682 369.231 123.29 373.303 121.381C375.926 120.162 378.89 118.759 379.093 117.77C379.116 117.701 379.139 117.54 378.867 117.195C376.741 114.596 364.707 118.437 349.619 126.51C349.189 126.74 348.647 126.579 348.398 126.119C348.172 125.682 348.33 125.13 348.782 124.877C355.093 121.496 376.017 110.847 380.247 115.999C380.948 116.85 380.971 117.632 380.858 118.138C380.45 120.001 377.759 121.266 374.072 123.014C372.285 123.865 370.294 124.785 368.439 125.889C374.275 123.29 382.351 120.484 386.06 122.738C387.01 123.313 388.141 124.486 388.141 126.878C388.141 127.384 387.734 127.798 387.237 127.798C386.739 127.798 386.332 127.384 386.332 126.878C386.332 125.636 385.947 124.785 385.133 124.302C380.948 121.772 367.534 128.074 362.739 130.719C362.603 130.811 362.467 130.834 362.309 130.834Z" fill="#000200"/>
<path d="M367.308 134.997C366.946 134.997 366.607 134.767 366.471 134.399C366.29 133.916 366.539 133.41 367.014 133.226C368.371 132.72 370.023 132.007 371.764 131.271C378.505 128.373 386.151 125.084 388.933 127.775C390.177 128.971 390.268 131.018 389.182 134.031C389.001 134.514 388.503 134.744 388.028 134.583C387.553 134.422 387.327 133.893 387.485 133.41C388.277 131.225 388.345 129.73 387.689 129.086C385.766 127.223 377.759 130.673 372.466 132.95C370.701 133.709 369.027 134.422 367.647 134.951C367.512 134.974 367.399 134.997 367.308 134.997Z" fill="#000200"/>
<path d="M304.99 270.881C279.587 270.881 267.146 252.964 267.01 252.757C266.739 252.343 266.829 251.768 267.237 251.492C267.644 251.216 268.209 251.308 268.481 251.722C268.639 251.952 284.337 274.469 316.616 267.822C350.388 260.876 355.975 211.012 358.961 184.217C359.142 182.607 359.301 181.089 359.482 179.64C359.64 178.214 359.73 176.788 359.821 175.362C359.911 173.982 360.002 172.625 360.138 171.291C360.183 170.647 360.273 169.957 360.386 169.267C361.223 162.482 363.327 150.545 367.942 147.233C371.493 144.68 375.972 143.001 379.93 141.506C384.409 139.827 388.639 138.24 389.046 136.124C389.182 135.365 389.182 134.859 389.001 134.698C387.915 133.709 380.903 136.078 372.013 139.068C371.538 139.229 371.041 138.976 370.882 138.493C370.724 138.01 370.973 137.504 371.448 137.343C384.273 133.042 388.413 131.731 390.2 133.341C391.15 134.192 391.014 135.549 390.833 136.492C390.245 139.62 385.97 141.23 380.564 143.231C376.718 144.68 372.352 146.313 368.982 148.728C366.019 150.844 363.531 158.434 362.173 169.52C362.06 170.187 361.992 170.831 361.947 171.452C361.789 172.786 361.721 174.097 361.631 175.454C361.54 176.903 361.45 178.352 361.269 179.824C361.11 181.273 360.929 182.791 360.748 184.378C357.695 211.633 352.017 262.348 316.978 269.547C312.703 270.513 308.722 270.881 304.99 270.881Z" fill="#000200"/>
<path d="M361.291 169.474C361.178 170.141 361.11 170.785 361.065 171.452C354.075 173.499 346.679 174.028 339.418 172.832C332.903 171.751 326.072 168.83 321.864 163.885C322 163.057 322.09 162.275 322.204 161.47C326.705 168.048 336.183 170.992 344.032 171.544C349.891 171.935 355.727 171.199 361.291 169.474Z" fill="#000200"/>
<path d="M294.63 270.03C294.516 270.03 294.426 270.007 294.313 269.984C293.838 269.8 293.612 269.294 293.77 268.811C300.782 249.353 328.944 241.625 343.783 246.11C344.258 246.248 344.53 246.754 344.394 247.237C344.258 247.72 343.761 247.996 343.286 247.858C329.08 243.58 302.139 250.917 295.467 269.455C295.331 269.8 294.992 270.03 294.63 270.03Z" fill="#000200"/>
<path d="M206.592 6.15104C202.475 2.08004 193.54 -1.85297 174.336 2.54004C174.041 2.60904 173.793 2.81604 173.702 3.11504C173.589 3.41404 173.634 3.73604 173.815 3.96604L177.661 9.32504C177.887 9.64704 178.271 9.78504 178.633 9.67004C186.799 7.18604 193.766 7.48504 198.268 10.498C201.027 12.338 202.701 15.19 203.108 18.755C204.149 27.771 187.274 30.209 187.116 30.232C186.664 30.301 186.324 30.715 186.347 31.175L187.093 46.447C187.116 46.93 187.523 47.321 187.998 47.321H191.278C191.527 47.321 191.753 47.229 191.934 47.045C192.092 46.861 192.205 46.631 192.183 46.378L191.844 35.453C195.237 34.694 208.582 31.129 210.573 20.779C211.659 14.983 210.256 9.78504 206.592 6.15104Z" fill="#000200"/>
<path d="M191.911 50.5179H187.41C186.98 50.5179 186.618 50.817 186.528 51.231L185.261 56.981C185.216 57.234 185.261 57.487 185.397 57.694C185.533 57.901 185.759 58.039 186.008 58.085L191.753 58.982C191.798 58.982 191.844 58.982 191.889 58.982C192.092 58.982 192.319 58.913 192.477 58.752C192.681 58.568 192.794 58.315 192.794 58.062V51.415C192.816 50.932 192.409 50.5179 191.911 50.5179Z" fill="#000200"/>
</svg>
