<svg width="319" height="306" viewBox="0 0 319 306" fill="none" xmlns="http://www.w3.org/2000/svg">
<path d="M300.884 276.948L257.567 276.971V299.373L301.563 296.567L300.884 276.948Z" fill="#F674B4"/>
<path d="M182.897 177.588C183.893 173.724 191.651 164.041 188.168 160.844C186.743 159.533 185.34 156.566 186.72 156.014C187.376 155.554 192.76 155.577 193.303 155.807C196.786 151.713 202.916 138.051 204.16 136.073C207.621 130.599 211.602 126.275 217.642 124.665L202.577 35.1262L39.6439 65.7392L74.117 207.557L181.54 183.545C181.699 181.475 182.355 179.704 182.897 177.588Z" fill="#FFCB56"/>
<path d="M185.408 121.422C185.408 142.398 177.355 160.154 148.062 160.154C127.433 160.154 110.716 142.398 110.716 121.422C110.716 100.446 127.433 83.4492 148.062 83.4492C168.692 83.4492 185.408 100.446 185.408 121.422Z" fill="white"/>
<path d="M32.903 47.1319C32.903 50.0299 31.7946 52.4679 27.7456 52.4679C24.8955 52.4679 22.5882 50.0299 22.5882 47.1319C22.5882 44.2339 24.8955 41.8879 27.7456 41.8879C30.5957 41.8879 32.903 44.2339 32.903 47.1319Z" fill="#7BAEED"/>
<path d="M242.592 23.3731C242.321 23.3731 242.027 23.2351 241.868 22.9821C240.353 20.8201 235.557 15.3001 231.87 15.7601C231.508 15.8061 231.146 15.6221 230.965 15.2771C230.784 14.9551 230.83 14.5411 231.078 14.2651C234.63 10.0331 234.494 1.29309 234.494 1.22409C234.494 0.833088 234.72 0.465091 235.105 0.350091C235.467 0.212091 235.874 0.350088 236.1 0.649088C237.684 2.78809 242.615 8.37709 246.234 8.67609C246.573 8.69909 246.867 8.92909 246.98 9.22809C247.116 9.55009 247.048 9.91809 246.822 10.1711C246.777 10.2171 242.728 15.1161 243.452 22.3611C243.497 22.7751 243.248 23.1661 242.886 23.3041C242.796 23.3501 242.705 23.3731 242.592 23.3731ZM233.454 14.0121C236.666 14.6331 239.787 17.6461 241.619 19.7851C241.8 15.2541 243.542 11.8731 244.628 10.1711C241.393 9.13609 238.068 5.75509 236.213 3.61609C236.032 6.33009 235.421 10.7461 233.454 14.0121Z" fill="#000200"/>
<path d="M115.014 155.301C110.739 159.441 109.472 164.731 109.925 168.273C109.925 168.273 105.016 161.12 98.705 159.533C100.311 157.187 104.541 153.714 103.5 142.329C103.478 142.329 108.477 155.301 115.014 155.301Z" fill="white"/>
<path d="M9.64945 150.517C6.61835 153.622 3.56463 156.704 0.533528 159.809C-0.280798 160.637 0.985932 161.925 1.80026 161.097C4.83136 157.992 7.88508 154.91 10.9162 151.805C11.7305 150.977 10.4638 149.689 9.64945 150.517Z" fill="#F674B4"/>
<path d="M32.8351 37.5411C30.1659 35.0571 27.4968 32.5731 24.8502 30.0891C24.0132 29.3071 22.7239 30.5721 23.5835 31.3771C26.2526 33.8611 28.9218 36.3451 31.5684 38.8291C32.428 39.6111 33.6947 38.3231 32.8351 37.5411Z" fill="#F674B4"/>
<path d="M124.605 163.719L124.899 172.85L132.658 168.296L124.605 163.719Z" fill="#FF3857"/>
<path d="M152.36 152.656C131.278 152.656 114.109 134.877 114.109 113.027C114.109 91.591 131.278 74.134 152.36 74.134C173.442 74.134 190.611 91.568 190.611 113.027C190.611 139.316 177.74 152.656 152.36 152.656ZM152.36 75.951C132.251 75.951 115.896 92.58 115.896 113.027C115.896 133.888 132.251 150.839 152.36 150.839C176.88 150.839 188.824 138.465 188.824 113.027C188.801 92.58 172.447 75.951 152.36 75.951Z" fill="#000200"/>
<path d="M158.581 131.795C158.151 131.795 157.789 131.496 157.699 131.059L150.732 92.2811L139.942 101.067C139.557 101.389 138.992 101.32 138.675 100.929C138.358 100.538 138.426 99.9631 138.811 99.6411L150.777 89.8891C151.026 89.6821 151.365 89.6361 151.659 89.7511C151.953 89.8661 152.179 90.1191 152.224 90.4411L159.463 130.714C159.553 131.197 159.237 131.68 158.739 131.772C158.671 131.795 158.626 131.795 158.581 131.795Z" fill="#000200"/>
<path d="M151.32 133.75C150.935 133.75 150.55 133.474 150.46 133.083C150.324 132.6 150.618 132.094 151.093 131.979L165.57 128.092C166.045 127.954 166.543 128.253 166.656 128.736C166.792 129.219 166.498 129.725 166.023 129.84L151.546 133.727C151.478 133.75 151.41 133.75 151.32 133.75Z" fill="#000200"/>
<path d="M234.245 134.118C233.815 134.118 233.431 133.796 233.363 133.359L221.487 62.1281C221.397 61.6221 221.736 61.1621 222.211 61.0701C222.686 60.9781 223.161 61.3231 223.252 61.8061L235.127 133.037C235.218 133.543 234.879 134.003 234.404 134.095C234.336 134.118 234.29 134.118 234.245 134.118Z" fill="#000200"/>
<path d="M221.578 51.7549L217.597 27.9039C217.551 27.6739 217.416 27.4439 217.235 27.3059C217.031 27.1679 216.805 27.1219 216.556 27.1679L53.6457 57.7809C53.3969 57.8269 53.1933 57.9649 53.0576 58.1719C52.9218 58.3789 52.8766 58.6319 52.9445 58.8849L69.0726 125.24C69.0726 125.263 69.0953 125.286 69.0953 125.309C69.6608 125.286 70.2263 125.263 70.7918 125.24C70.837 125.102 70.837 124.941 70.7918 124.803L54.8898 59.3909L215.991 29.1229L219.813 52.0769C219.904 52.5599 220.356 52.9049 220.854 52.8129C221.352 52.7209 221.668 52.2609 221.578 51.7549Z" fill="#000200"/>
<path d="M88.639 202.911C88.2319 202.911 87.8699 202.635 87.7795 202.221L72.8275 140.719C72.7144 140.236 73.0085 139.73 73.4835 139.615C73.9585 139.5 74.4562 139.799 74.5693 140.282L89.3176 200.91L182.694 178.393C183.169 178.255 183.666 178.577 183.779 179.06C183.892 179.543 183.598 180.049 183.123 180.164L88.8878 202.888C88.7747 202.911 88.7069 202.911 88.639 202.911Z" fill="#000200"/>
<path d="M188.53 166.272C188.326 166.042 188.032 165.927 187.715 165.996L98.8181 182.51L84.2734 128.253C84.1376 127.77 83.6626 127.494 83.165 127.609C82.6899 127.747 82.3959 128.253 82.5316 128.736L97.28 183.798C97.3931 184.189 97.755 184.465 98.1395 184.465C98.1848 184.465 98.2526 184.465 98.2979 184.442L187.557 167.859C187.896 167.33 188.236 166.824 188.53 166.272Z" fill="#000200"/>
<path d="M80.0887 116.937C79.7041 116.937 79.3422 116.661 79.2291 116.27L66.8785 70.2011C66.8106 69.9481 66.8559 69.6951 66.9916 69.4651C67.1273 69.2581 67.3535 69.0971 67.6023 69.0511L206.332 44.4871C206.829 44.3951 207.282 44.7171 207.372 45.2231L208.119 49.4091C208.209 49.8921 207.893 50.3751 207.395 50.4671C206.92 50.5591 206.445 50.2371 206.354 49.7311L205.766 46.4421L68.8691 70.6841L80.9482 115.787C81.0839 116.27 80.7899 116.776 80.3149 116.914C80.247 116.937 80.1565 116.937 80.0887 116.937Z" fill="#000200"/>
<path d="M222.279 134.095C221.849 134.095 221.487 133.796 221.397 133.359L207.757 57.5969C207.666 57.1139 207.983 56.6309 208.481 56.5389C208.956 56.4699 209.431 56.7689 209.521 57.2749L223.161 133.037C223.252 133.52 222.935 134.003 222.437 134.095C222.369 134.072 222.324 134.095 222.279 134.095Z" fill="#000200"/>
<path d="M67.738 70.8679C67.5344 70.8679 67.3535 70.799 67.1725 70.661L53.2385 59.391C52.8539 59.069 52.7861 58.494 53.1028 58.103C53.4195 57.712 53.9623 57.643 54.3695 57.965L68.3035 69.235C68.6881 69.557 68.7559 70.1319 68.4392 70.5229C68.2583 70.7529 68.0094 70.8679 67.738 70.8679Z" fill="#000200"/>
<path d="M206.468 46.2809C206.309 46.2809 206.151 46.2349 206.015 46.1429C205.585 45.8899 205.45 45.3149 205.721 44.9009L215.991 27.5819C216.24 27.1449 216.782 27.0069 217.212 27.2599C217.642 27.5129 217.778 28.0879 217.506 28.5019L207.237 45.8209C207.056 46.1429 206.762 46.2809 206.468 46.2809Z" fill="#000200"/>
<path d="M88.2772 201.393C88.1189 201.393 87.9605 201.347 87.8248 201.255C87.395 201.002 87.2593 200.45 87.5081 200.013L97.4158 183.085C97.6646 182.648 98.2075 182.51 98.6373 182.763C99.067 183.016 99.2028 183.568 98.9539 184.005L89.0463 200.933C88.888 201.232 88.5713 201.393 88.2772 201.393Z" fill="#000200"/>
<path d="M130.215 83.3341C130.011 83.3341 129.785 83.2651 129.627 83.1041L107.844 63.4161C107.482 63.0711 107.436 62.4961 107.776 62.1281C108.115 61.7601 108.658 61.7141 109.042 62.0591L130.826 81.7471C131.188 82.0921 131.233 82.6671 130.893 83.0351C130.713 83.2421 130.464 83.3341 130.215 83.3341Z" fill="#000200"/>
<path d="M121.619 92.3501C121.438 92.3501 121.257 92.2811 121.076 92.1661L87.7342 67.0501C87.3271 66.7511 87.2592 66.1761 87.5533 65.7851C87.8473 65.3941 88.4129 65.3021 88.7974 65.6011L122.14 90.7171C122.547 91.0161 122.615 91.5911 122.32 91.9821C122.162 92.2121 121.891 92.3501 121.619 92.3501Z" fill="#000200"/>
<path d="M161.272 77.032C161.182 77.032 161.114 77.009 161.024 76.986C160.549 76.848 160.277 76.342 160.413 75.859L167.403 51.8699C167.538 51.3869 168.036 51.1109 168.511 51.2489C168.986 51.3869 169.257 51.8929 169.122 52.3759L162.132 76.365C161.996 76.779 161.657 77.032 161.272 77.032Z" fill="#000200"/>
<path d="M174.505 83.3339C174.415 83.3339 174.302 83.3109 174.211 83.2879C173.736 83.1269 173.51 82.5979 173.668 82.1379L185.182 48.7189C185.34 48.2359 185.861 47.9829 186.313 48.1669C186.788 48.3279 187.014 48.8569 186.856 49.3169L175.342 82.7359C175.206 83.1039 174.867 83.3339 174.505 83.3339Z" fill="#000200"/>
<path d="M114.992 48.075C114.788 48.075 114.562 48.006 114.403 47.845C114.041 47.5 114.019 46.925 114.336 46.557L133.812 24.592C134.06 24.316 134.468 24.224 134.807 24.362L165.095 36.966C165.548 37.15 165.774 37.679 165.593 38.162C165.412 38.622 164.869 38.852 164.417 38.668L134.716 26.294L115.67 47.776C115.489 47.983 115.24 48.075 114.992 48.075Z" fill="#000200"/>
<path d="M198.324 172.62C197.171 173.494 195.406 174.368 194.139 173.241C193.235 172.436 191.9 173.793 192.805 174.598C194.75 176.323 197.351 175.702 199.274 174.276C200.247 173.563 199.297 171.907 198.324 172.62Z" fill="#000200"/>
<path d="M203.911 151.782L203.029 153.484C201.898 155.669 198.55 153.875 199.681 151.69L200.564 149.988C201.695 147.803 205.042 149.597 203.911 151.782Z" fill="#000200"/>
<path d="M205.902 140.098C206.739 140.903 207.44 141.892 208.322 142.628C209.25 143.41 208.232 145.02 207.304 144.238C206.286 143.387 205.472 142.329 204.499 141.386C203.64 140.535 205.02 139.247 205.902 140.098Z" fill="#000200"/>
<path d="M297.717 200.473C292.266 190.353 280.548 185.661 269.691 187.961C267.972 183.89 264.488 181.314 260.484 180.187C265.913 170.251 269.08 156.957 254.422 141.064C251.233 136.671 246.121 132.623 239.086 128.851C222.415 119.904 210.788 122.089 203.549 135.544C201.83 138.718 200.315 141.524 198.89 144.123C196.763 148.01 194.909 151.414 192.986 155.071C191.312 154.519 187.534 153.576 185.883 155.761C185.204 156.658 184.978 157.716 185.204 158.797C185.544 160.338 186.81 161.879 188.665 163.052C181.472 177.312 178.532 186.581 183.282 194.24C186.041 198.679 191.335 201.853 195.791 203.877L199.184 213.836C199.319 214.204 199.659 214.434 200.021 214.434C200.111 214.434 200.224 214.411 200.315 214.388C200.79 214.227 201.016 213.698 200.858 213.215L200.45 212.042C204.296 210.294 204.341 205.924 204.341 205.717C204.341 205.303 204.07 204.935 203.685 204.843C203.549 204.797 189.593 201.002 184.797 193.251C180.907 186.972 182.377 179.359 190.656 163.098C190.656 163.075 190.679 163.052 190.679 163.029C190.701 162.983 190.701 162.96 190.724 162.914C190.724 162.891 190.724 162.868 190.724 162.845C190.724 162.799 190.746 162.776 190.746 162.73C190.746 162.707 190.746 162.684 190.746 162.661C190.746 162.615 190.746 162.592 190.746 162.546C190.746 162.523 190.746 162.5 190.724 162.477C190.724 162.431 190.701 162.408 190.701 162.362C190.701 162.339 190.679 162.316 190.679 162.293C190.656 162.27 190.656 162.224 190.633 162.201C190.611 162.178 190.611 162.155 190.588 162.132C190.565 162.109 190.543 162.086 190.543 162.04C190.52 162.017 190.498 161.994 190.498 161.994C190.475 161.971 190.452 161.948 190.43 161.925C190.407 161.902 190.384 161.902 190.362 161.879C190.339 161.856 190.317 161.833 190.271 161.833C188.507 160.89 187.218 159.51 186.946 158.337C186.833 157.785 186.946 157.279 187.286 156.796C188.213 155.554 191.583 156.382 193.054 156.98C193.054 156.98 193.076 156.98 193.099 156.98C193.144 157.003 193.167 157.003 193.212 157.003C193.235 157.003 193.257 157.003 193.28 157.003C193.325 157.003 193.37 157.003 193.393 157.003C193.416 157.003 193.438 157.003 193.438 157.003C193.483 157.003 193.529 157.003 193.551 156.98C193.574 156.98 193.597 156.98 193.597 156.98C193.642 156.98 193.664 156.957 193.71 156.934C193.732 156.934 193.755 156.911 193.755 156.911C193.777 156.888 193.823 156.888 193.845 156.865C193.868 156.842 193.891 156.842 193.891 156.819C193.913 156.796 193.936 156.773 193.981 156.75C194.004 156.727 194.026 156.727 194.026 156.704C194.049 156.681 194.072 156.658 194.094 156.635C194.117 156.612 194.117 156.589 194.139 156.566C194.139 156.543 194.162 156.543 194.162 156.52C196.198 152.61 198.166 149.045 200.405 144.905C201.83 142.283 203.368 139.5 205.065 136.326C207.915 131.059 211.512 127.678 215.9 126.16C210.969 143.571 223.5 162.684 223.953 162.891C229.042 165.283 232.187 167.951 233.069 170.619C233.499 171.907 233.408 173.172 232.775 174.391C232.39 175.127 231.463 176.461 229.563 177.013C227.459 177.634 224.858 177.059 222.007 175.403C221.713 175.219 220.944 174.805 220.243 175.794C213.57 185.201 220.469 196.172 230.015 199.369C225.084 203.302 221.148 208.615 221.08 215.147C221.012 221.978 225.242 228.464 231.893 229.798C230.264 242.31 244.922 245.645 254.445 245.208C267.768 244.587 282.335 242.402 292.379 232.627C301.042 224.347 303.553 211.283 297.717 200.473Z" fill="#000200"/>
<path d="M164.756 305.744C164.371 305.744 164.032 305.491 163.896 305.1L155.844 279.432C155.685 278.949 155.957 278.443 156.432 278.282C156.907 278.144 157.404 278.397 157.563 278.88L165.616 304.548C165.774 305.031 165.502 305.537 165.027 305.698C164.937 305.721 164.847 305.744 164.756 305.744Z" fill="#000200"/>
<path d="M183.078 305.744C182.694 305.744 182.355 305.491 182.219 305.1L173.623 277.201C173.465 276.718 173.736 276.212 174.211 276.051C174.686 275.89 175.184 276.166 175.342 276.649L183.938 304.548C184.096 305.031 183.825 305.537 183.35 305.698C183.259 305.744 183.169 305.744 183.078 305.744Z" fill="#000200"/>
<path d="M287.719 291.806C287.335 291.806 286.973 291.53 286.86 291.139L273.197 240.378C273.061 239.895 273.355 239.389 273.83 239.251C274.305 239.136 274.803 239.412 274.939 239.895L288.601 290.656C288.737 291.139 288.443 291.645 287.968 291.783C287.878 291.783 287.81 291.806 287.719 291.806Z" fill="#000200"/>
<path d="M107.436 230.35C97.9586 230.35 88.7522 228.993 81.7173 225.405C75.542 222.254 71.4251 217.654 69.5024 211.72C61.427 186.926 65.8153 147.941 71.5609 141.524C72.3526 140.627 73.1669 139.753 73.9812 138.902C78.4374 134.118 82.6447 129.61 85.5175 120.525C86.9878 115.856 86.3997 113.28 85.2234 112.843C84.2055 112.475 82.509 113.579 81.6268 115.833C81.2875 116.707 80.9935 117.489 80.722 118.225C79.0029 122.802 78.2112 124.895 73.8229 125.378C73.2574 125.447 69.0048 126.298 67.738 125.194C66.0415 123.699 65.4987 119.812 65.8832 111.831C65.9058 111.325 66.3356 110.934 66.8106 110.957C67.3083 110.98 67.6928 111.417 67.6702 111.9C67.3309 118.869 67.738 122.779 68.9143 123.791C69.4798 124.297 73.0085 123.63 73.6419 123.561C76.9445 123.193 77.3969 121.997 79.0708 117.581C79.3422 116.845 79.6363 116.063 79.9982 115.166C81.2197 112.084 83.7305 110.359 85.8568 111.141C86.8068 111.486 89.7249 113.234 87.2593 121.1C84.2508 130.576 79.7041 135.452 75.3158 140.19C74.5241 141.041 73.7098 141.892 72.9181 142.789C68.1452 148.125 63.0783 186.121 71.2442 211.168C73.0312 216.619 76.8314 220.874 82.5769 223.795C99.6325 232.489 129.898 227.636 144.941 222.53C154.667 219.241 169.484 217.286 185.159 215.239C201.717 213.054 218.863 210.823 229.947 206.821C230.422 206.66 230.92 206.913 231.078 207.373C231.237 207.856 231.01 208.362 230.535 208.546C219.271 212.594 202.034 214.848 185.386 217.056C169.8 219.103 155.075 221.035 145.506 224.278C136.277 227.337 121.551 230.35 107.436 230.35Z" fill="#000200"/>
<path d="M174.008 217.539C173.284 217.631 172.56 217.677 171.836 217.677C171.859 217.7 171.859 217.723 171.881 217.746C182.241 230.511 187.105 244.173 185.544 256.202C184.481 264.367 180.454 271.428 174.166 276.051C91.2404 287.574 63.7795 276.603 39.5985 250.82C15.3497 224.991 21.2762 166.939 39.1688 125.424C41.476 120.065 46.1131 117.466 46.1584 117.443C46.5882 117.213 47.6966 115.81 47.4704 115.373C47.2442 114.936 45.7512 115.603 45.3214 115.833C45.1179 115.948 40.0962 118.731 37.5401 124.688C19.4214 166.732 13.5401 225.681 38.3092 252.062C56.3601 271.267 76.1075 282.422 118.339 282.422C133.766 282.422 152.202 280.927 174.641 277.799C174.777 277.776 174.912 277.73 175.048 277.638C181.857 272.716 186.222 265.172 187.353 256.409C188.892 244.219 184.164 230.442 174.008 217.539Z" fill="#000200"/>
<path d="M144.036 281.318C143.945 281.318 143.855 281.295 143.764 281.272C143.289 281.111 143.041 280.605 143.176 280.122C148.469 263.332 144.692 239.366 134.739 226.647C134.422 226.256 134.49 225.681 134.875 225.359C135.259 225.037 135.825 225.106 136.141 225.497C146.592 238.86 150.437 263.079 144.895 280.651C144.76 281.065 144.398 281.318 144.036 281.318Z" fill="#000200"/>
<path d="M135.44 281.939C135.372 281.939 135.282 281.939 135.214 281.916C134.739 281.778 134.445 281.295 134.581 280.812C138.313 266.506 137.838 243.874 127.885 227.981C127.614 227.567 127.749 226.992 128.156 226.716C128.586 226.44 129.129 226.578 129.401 226.992C139.625 243.322 140.145 266.575 136.3 281.249C136.187 281.686 135.825 281.939 135.44 281.939Z" fill="#000200"/>
<path d="M58.3958 129.863C57.9434 129.863 57.5363 129.495 57.5137 129.012C57.4684 128.299 56.2695 111.555 62.1056 100.653C62.3318 100.216 63.3497 98.376 63.7794 98.606C64.2092 98.859 63.9152 101.067 63.6663 101.527C58.0792 111.946 59.278 128.69 59.278 128.874C59.3233 129.38 58.9387 129.817 58.4637 129.84C58.4411 129.863 58.4185 129.863 58.3958 129.863Z" fill="#000200"/>
<path d="M49.0312 131.795C49.0085 131.795 49.0085 131.795 48.9859 131.795C48.4883 131.772 48.1037 131.335 48.1263 130.852C49.0312 111.739 53.3064 107.553 60.2281 102.355C60.6127 102.056 62.5354 101.09 62.8295 101.481C63.1235 101.895 61.6984 103.505 61.2913 103.804C54.5957 108.841 50.7729 112.59 49.9133 130.944C49.8907 131.427 49.5062 131.795 49.0312 131.795Z" fill="#000200"/>
<path d="M41.9059 133.75C41.8833 133.75 41.8833 133.75 41.8606 133.75C41.363 133.727 40.9785 133.29 41.0237 132.784C41.6571 120.893 44.8013 114.706 52.6052 109.968C53.035 109.715 53.5779 109.853 53.8267 110.29C54.0755 110.727 53.9398 111.279 53.51 111.532C46.2037 115.948 43.3988 121.56 42.8107 132.899C42.7655 133.382 42.3809 133.75 41.9059 133.75Z" fill="#000200"/>
<path d="M238.52 73.49C231.689 73.49 228.929 70.155 226.237 66.912C224.699 65.049 223.093 63.14 220.673 61.737C218.004 60.219 214.136 59.437 210.381 58.678C204.432 57.482 198.822 56.355 198.573 52.192C198.482 50.812 198.528 49.432 199.455 48.604C200.812 47.385 203.165 47.845 208.91 48.949C212.145 49.57 216.601 50.421 222.415 51.249C222.912 51.318 223.252 51.778 223.184 52.284C223.116 52.79 222.663 53.112 222.166 53.066C216.307 52.238 211.851 51.387 208.594 50.766C204.228 49.938 201.355 49.386 200.654 50.007C200.383 50.26 200.292 50.95 200.36 52.123C200.541 54.906 205.495 55.895 210.743 56.953C214.633 57.735 218.66 58.54 221.578 60.219C224.292 61.76 225.989 63.807 227.64 65.808C230.309 69.028 232.639 71.811 238.814 71.719C238.814 71.719 238.814 71.719 238.837 71.719C239.335 71.719 239.719 72.11 239.742 72.616C239.742 73.122 239.357 73.536 238.859 73.536C238.724 73.49 238.611 73.49 238.52 73.49Z" fill="#000200"/>
<path d="M293.532 209.627C293.329 209.627 293.103 209.558 292.944 209.397C292.582 209.052 292.537 208.5 292.876 208.109C318.867 178.324 320.405 123.4 312.579 103.413C297.943 66.015 257.001 50.26 218.886 39.795C218.411 39.657 218.117 39.174 218.253 38.668C218.388 38.185 218.886 37.886 219.338 38.024C257.883 48.627 299.301 64.612 314.23 102.746C322.192 123.101 320.631 179.014 294.211 209.328C294.03 209.512 293.781 209.627 293.532 209.627Z" fill="#000200"/>
<path d="M261.005 176.576C260.801 176.576 260.575 176.507 260.417 176.346C260.055 176.024 260.009 175.449 260.326 175.058C270.844 162.891 276.5 138.304 273.174 119.076C270.008 100.768 253.336 87.1519 224.971 79.7229C224.496 79.6079 224.202 79.1019 224.337 78.6189C224.473 78.1359 224.948 77.8369 225.423 77.9749C254.535 85.5879 271.659 99.6869 274.939 118.777C278.332 138.488 272.518 163.742 261.661 176.254C261.502 176.484 261.254 176.576 261.005 176.576Z" fill="#000200"/>
<path d="M305.725 190.606C305.702 190.606 305.679 190.606 305.657 190.606C305.159 190.56 304.797 190.123 304.842 189.617C305.498 181.751 292.967 168.02 268.605 163.811C268.107 163.719 267.791 163.259 267.881 162.753C267.972 162.247 268.424 161.925 268.922 162.017C294.641 166.479 307.353 180.992 306.629 189.778C306.584 190.238 306.2 190.606 305.725 190.606Z" fill="#000200"/>
<path d="M301.766 197.115C301.336 197.115 300.975 196.816 300.884 196.379C298.894 185.822 286.973 177.22 265.461 170.826C264.986 170.688 264.714 170.182 264.85 169.699C264.986 169.216 265.483 168.94 265.959 169.078C288.172 175.679 300.5 184.741 302.648 196.034C302.739 196.517 302.422 197 301.947 197.092C301.879 197.115 301.811 197.115 301.766 197.115Z" fill="#000200"/>
</svg>
