<svg width="384" height="294" viewBox="0 0 384 294" fill="none" xmlns="http://www.w3.org/2000/svg">
<path d="M0.838684 29.1891L7.23189 220.135H135.05L139.374 29.1891H0.838684Z" fill="#F6C8E2"/>
<path d="M300.883 41.632C298.56 44.622 296.261 47.589 293.938 50.579C293.087 51.683 294.628 53.27 295.502 52.143C297.824 49.153 300.124 46.186 302.447 43.196C303.298 42.092 301.757 40.505 300.883 41.632Z" fill="#FE7122"/>
<path d="M279.542 56.26V70.681L290.327 64.931L279.542 56.26Z" fill="#FE7122"/>
<path d="M58.7227 248.862C54.9971 245.389 51.2486 241.916 47.5231 238.42C46.4882 237.454 44.9244 239.018 45.9593 239.984C49.6848 243.457 53.4333 246.93 57.1589 250.426C58.1937 251.369 59.7575 249.828 58.7227 248.862Z" fill="#FE7122"/>
<path d="M84.6175 61.0441L91.2407 69.5541L103.015 61.0441L93.8164 51.0851L84.6175 61.0441Z" fill="#8C5FF8"/>
<path d="M174.26 44.5296C183.091 44.5066 191.876 45.1506 200.753 44.8056C204.846 44.6446 208.94 44.5066 213.033 44.5986C209.193 37.5836 200.914 32.2706 183.965 32.2706C157.495 32.2706 148.687 43.3106 148.687 60.9516C148.687 78.5926 148.687 78.5926 148.687 78.5926L148.894 78.9606C151.792 78.6156 154.299 79.5356 156.667 79.6506C164.44 69.4846 147.101 44.6216 174.26 44.5296Z" fill="#2D2D2D"/>
<path d="M193.003 94.3253C192.382 94.3253 191.899 93.8423 191.899 93.2213C191.899 92.6003 192.382 92.1173 193.003 92.1173C195.073 92.1173 196.775 91.5653 197.556 90.6453C197.993 90.1163 198.154 89.4953 198.016 88.7133C197.717 86.9653 193.854 85.9993 192.014 85.7923C191.462 85.7233 191.025 85.2633 191.025 84.6883V74.5913C191.025 73.9703 191.508 73.4873 192.129 73.4873C192.75 73.4873 193.233 73.9703 193.233 74.5913V83.7453C195.28 84.1133 199.672 85.2403 200.178 88.3453C200.408 89.7713 200.086 91.0593 199.212 92.0713C197.993 93.5203 195.786 94.3253 193.003 94.3253Z" fill="#2D2D2D"/>
<path d="M200.96 72.6823V74.8903C200.96 77.7193 205.375 77.7423 205.375 74.8903V72.6823C205.375 69.8533 200.96 69.8533 200.96 72.6823Z" fill="#2D2D2D"/>
<path d="M170.006 72.6823V74.8903C170.006 77.7193 174.421 77.7423 174.421 74.8903V72.6823C174.421 69.8533 170.006 69.8533 170.006 72.6823Z" fill="#2D2D2D"/>
<path d="M173.846 62.4933C172.03 62.5393 170.259 62.7003 168.488 63.0913C167.108 63.4133 167.867 65.4833 169.224 65.1613C170.788 64.8163 172.421 64.7243 174.03 64.6783C175.456 64.6323 175.249 62.4473 173.846 62.4933Z" fill="#2D2D2D"/>
<path d="M206.065 62.4932C204.754 62.2172 203.375 62.1712 202.064 61.7802C200.707 61.3892 199.833 63.4132 201.19 63.8042C202.685 64.2412 204.226 64.3332 205.72 64.6782C207.146 64.9772 207.445 62.7922 206.065 62.4932Z" fill="#2D2D2D"/>
<path d="M217.357 68.0822C217.288 64.6552 217.219 61.0902 217.173 57.3872C216.897 39.9992 205.743 31.1672 184.011 31.1672C159.174 31.1672 147.63 40.6202 147.63 60.9522V78.5932C147.63 79.2142 148.113 79.6972 148.733 79.6972C149.354 79.6972 149.837 79.2142 149.837 78.5932V60.9522C149.837 41.8852 160.37 33.3752 184.011 33.3752C204.594 33.3752 214.712 41.2412 214.965 57.4102C215.034 61.1132 215.103 64.6782 215.172 68.1052C215.793 100.466 216.184 119.993 205.513 126.157C196.361 131.447 179.826 130.435 179.665 130.412C179.274 130.389 178.929 130.55 178.699 130.849C178.469 131.148 178.423 131.539 178.561 131.884C180.608 137.335 188.289 140.348 192.543 141.659C194.015 138.899 195.556 136.162 196.729 133.264V131.585C196.729 131.562 196.729 131.516 196.729 131.493C200.224 130.803 203.72 129.722 206.617 128.043C218.392 121.258 218.001 101.248 217.357 68.0822Z" fill="#2D2D2D"/>
<path d="M197.165 130.435C196.751 130.412 196.338 130.642 196.131 131.033L182.309 158.633L154.184 128.664C153.77 128.227 153.08 128.204 152.62 128.618C152.183 129.032 152.16 129.722 152.574 130.182L181.803 161.301C182.01 161.531 182.309 161.646 182.608 161.646C182.654 161.646 182.723 161.646 182.769 161.623C183.114 161.577 183.436 161.347 183.597 161.025L197.188 133.908V130.435H197.165Z" fill="#2D2D2D"/>
<path d="M167.522 170.087C167.499 170.087 167.476 170.087 167.453 170.087C167.108 170.064 166.786 169.88 166.602 169.604L146.112 138.646C145.859 138.255 145.859 137.749 146.135 137.381L152.252 129.101L151.355 95.6593C146.457 95.6133 143.72 94.0033 142.225 92.5773C140.569 90.9903 139.65 88.8743 139.65 86.6203C139.65 84.1823 140.362 82.2963 141.857 80.8933C144.387 78.5013 149.009 77.5123 156.001 77.8573C156.598 77.8803 157.081 78.4093 157.035 79.0073C157.012 79.6053 156.437 80.0883 155.886 80.0423C149.607 79.7203 145.399 80.5483 143.375 82.4803C142.317 83.4923 141.857 84.7573 141.857 86.6203C141.857 87.5633 142.11 89.4033 143.766 90.9903C145.606 92.7383 148.572 93.5893 152.39 93.4513C152.666 93.4283 152.965 93.5433 153.195 93.7503C153.402 93.9573 153.54 94.2333 153.54 94.5323L154.483 129.446C154.483 129.699 154.414 129.929 154.276 130.136L148.388 138.094L167.66 167.212L177.595 155.735C177.986 155.275 178.699 155.229 179.159 155.62C179.619 156.011 179.665 156.724 179.274 157.184L168.396 169.765C168.143 169.949 167.844 170.087 167.522 170.087Z" fill="#2D2D2D"/>
<path d="M194.015 167.005C193.693 167.005 193.394 166.867 193.164 166.614L184.264 156.103C183.965 155.758 183.919 155.275 184.126 154.884L196.131 132.321C196.269 132.045 196.522 131.838 196.82 131.769C197.119 131.7 197.441 131.746 197.694 131.907L203.306 135.541C203.72 135.817 203.904 136.3 203.766 136.783L195.027 166.246C194.912 166.637 194.59 166.936 194.199 167.005C194.176 167.005 194.107 167.005 194.015 167.005ZM186.449 155.252L193.555 163.647L201.466 136.944L197.556 134.414L186.449 155.252Z" fill="#2D2D2D"/>
<path d="M172.789 84.8032C171.248 84.8032 169.684 84.4582 168.235 83.7222C164.395 81.8132 162.187 77.9262 162.164 73.0502C162.164 72.4292 162.647 71.9462 163.268 71.9462C163.866 71.9462 164.372 72.4292 164.372 73.0502C164.395 77.0752 166.165 80.2492 169.224 81.7672C171.823 83.0552 174.881 82.8712 177.02 81.2612C179.458 79.4442 180.378 76.1092 179.642 71.9002C179.527 71.3022 179.941 70.7272 180.539 70.6122C181.136 70.4972 181.711 70.9112 181.826 71.5092C183.045 78.3632 180.194 81.6752 178.377 83.0322C176.767 84.2052 174.789 84.8032 172.789 84.8032Z" fill="#2D2D2D"/>
<path d="M204.065 83.5612C202.708 83.5612 201.351 83.2392 200.086 82.5952C196.522 80.7782 194.475 76.7992 194.475 71.6932C194.475 71.0722 194.958 70.5892 195.579 70.5892C196.2 70.5892 196.683 71.0722 196.683 71.6932C196.683 75.9482 198.292 79.2142 201.098 80.6402C203.283 81.7672 205.881 81.5602 207.836 80.1342C210.251 78.3632 211.286 75.0742 210.642 71.0722C210.55 70.4742 210.964 69.8992 211.562 69.8072C212.16 69.7152 212.735 70.1292 212.827 70.7272C213.608 75.5802 212.252 79.6512 209.147 81.9052C207.629 82.9862 205.858 83.5612 204.065 83.5612Z" fill="#2D2D2D"/>
<path d="M180.998 77.1212C180.608 77.1212 180.24 76.9142 180.033 76.5462C179.734 76.0172 179.941 75.3502 180.47 75.0512C180.815 74.8672 188.795 70.5662 196.062 74.0392C196.614 74.2922 196.844 74.9592 196.591 75.5112C196.338 76.0632 195.671 76.2932 195.119 76.0402C188.864 73.0732 181.619 76.9602 181.55 77.0062C181.343 77.0752 181.159 77.1212 180.998 77.1212Z" fill="#2D2D2D"/>
<path d="M200.707 97.0392L197.004 97.8442C195.625 98.1432 196.2 100.259 197.579 99.9603C198.821 99.6843 200.063 99.4313 201.282 99.1553C202.685 98.8563 202.087 96.7402 200.707 97.0392Z" fill="#2D2D2D"/>
<path d="M78.6379 293.942C78.04 293.942 77.5341 293.459 77.5341 292.838C76.6372 167.971 115.709 150.675 144.249 138.025L146.595 136.99C147.147 136.737 147.813 136.99 148.043 137.542C148.296 138.094 148.043 138.761 147.492 138.991L145.146 140.026C117.181 152.423 78.8679 169.374 79.7418 292.792C79.7418 293.436 79.2589 293.942 78.6379 293.942Z" fill="#2D2D2D"/>
<path d="M121.068 293.942C120.447 293.942 119.964 293.459 119.964 292.838V215.42C119.964 214.799 120.447 214.316 121.068 214.316C121.688 214.316 122.171 214.799 122.171 215.42V292.838C122.171 293.436 121.688 293.942 121.068 293.942Z" fill="#2D2D2D"/>
<path d="M186.288 289.043C185.69 289.043 185.207 288.56 185.184 287.962L181.504 160.565C181.481 159.944 181.964 159.438 182.585 159.438C183.275 159.415 183.712 159.898 183.712 160.519L187.391 287.916C187.414 288.537 186.931 289.043 186.311 289.043C186.288 289.043 186.288 289.043 186.288 289.043Z" fill="#2D2D2D"/>
<path d="M242.401 291.665C241.826 291.665 241.343 291.228 241.297 290.653C237.18 239.524 235.226 213.189 235.502 212.384C235.685 211.809 236.329 211.487 236.904 211.694C237.433 211.855 237.732 212.384 237.64 212.913C237.548 215.282 241.09 260.523 243.505 290.492C243.551 291.09 243.091 291.619 242.493 291.688C242.47 291.665 242.447 291.665 242.401 291.665Z" fill="#2D2D2D"/>
<path d="M148.71 255.233C148.503 255.233 148.296 255.187 148.135 255.072L130.819 244.285C130.52 244.101 130.313 243.779 130.313 243.411L128.358 208.336C128.335 208.037 128.45 207.738 128.657 207.508C128.864 207.278 129.163 207.163 129.462 207.163H165.59C165.889 207.163 166.165 207.278 166.372 207.485C166.579 207.692 166.694 207.968 166.694 208.267L166.671 243.02C166.671 243.388 166.487 243.733 166.165 243.94L149.308 255.049C149.124 255.164 148.917 255.233 148.71 255.233ZM132.451 242.698L148.664 252.818L164.417 242.422L164.44 209.371H130.612L132.451 242.698Z" fill="#2D2D2D"/>
<path d="M257.349 218.111C257.303 218.111 257.257 218.111 257.211 218.111C255.693 218.042 251.094 217.858 247.23 194.237C242.999 168.224 226.211 146.995 202.34 137.496C201.765 137.266 201.489 136.622 201.719 136.07C201.949 135.495 202.593 135.219 203.145 135.449C227.729 145.247 245.022 167.097 249.392 193.892C252.772 214.684 256.544 215.903 257.28 215.926C257.901 215.995 261.143 215.282 265.03 199.642C267.077 191.454 268.709 180.575 270.434 169.052C273.585 148.03 276.873 126.272 283.129 117.302C291.247 105.641 309.231 98.2812 331.101 108.125C353.684 118.291 349.338 135.035 349.292 135.219C349.131 135.817 348.395 137.358 347.797 137.197C347.222 137.036 347.015 135.219 347.176 134.621C347.337 134 350.993 119.487 330.204 110.126C309.483 100.811 292.558 107.642 284.945 118.567C278.989 127.123 275.747 148.605 272.642 169.374C270.894 180.943 269.261 191.891 267.192 200.171C264.179 212.223 260.959 218.111 257.349 218.111Z" fill="#2D2D2D"/>
<path d="M342.921 145.684C342.668 145.684 342.438 145.592 342.231 145.431C341.772 145.04 342.484 143.43 342.875 142.97C349.453 134.989 345.957 130.757 339.426 124.731C338.989 124.317 338.943 123.627 339.357 123.167C339.771 122.707 340.461 122.684 340.921 123.098C347.728 129.377 352.327 134.943 344.577 144.373C344.347 144.626 343.243 145.684 342.921 145.684Z" fill="#2D2D2D"/>
<path d="M321.465 154.815C321.442 155.068 321.373 155.298 321.235 155.528C320.913 156.149 319.993 156.609 318.751 156.747C316.199 157.023 312.059 155.942 308.77 151.986C303.895 146.075 302.791 141.176 302.768 141.13C302.63 140.532 302.055 140.164 301.457 140.279C300.859 140.417 300.492 140.992 300.606 141.59C300.652 141.82 301.825 147.041 307.069 153.389C310.495 157.552 314.865 159.001 317.969 159.001C318.314 159.001 318.659 158.978 318.981 158.955C320.407 158.794 321.603 158.311 322.408 157.552C322.086 156.655 321.764 155.735 321.465 154.815Z" fill="#2D2D2D"/>
<path d="M335.079 128.641C334.642 128.204 333.952 128.204 333.515 128.641C333.079 129.078 333.079 129.768 333.515 130.205C333.584 130.274 341.082 137.818 341.105 145.086C341.105 147.639 340.162 149.87 338.276 151.756C334.573 155.459 329.146 156.54 327.306 155.482C326.961 155.275 326.777 155.045 326.938 154.47C327.283 153.182 328.364 152.446 329.606 151.595C331.492 150.284 333.86 148.674 332.803 144.718C331.791 140.969 328.548 136.921 324.915 134.897C322.753 133.701 320.706 133.333 318.958 133.862C316.774 134.506 315.118 136.346 314.405 138.899C313.531 141.981 314.267 145.408 316.245 147.616C316.774 148.214 317.325 148.789 317.831 149.318C319.096 150.675 320.108 151.779 320.729 152.722C320.269 151.181 319.878 149.617 319.625 148.03C319.556 147.961 319.487 147.892 319.418 147.823C318.912 147.294 318.383 146.742 317.877 146.144C316.383 144.488 315.854 141.889 316.521 139.497C317.027 137.703 318.13 136.415 319.579 135.978C321.028 135.541 322.684 136.185 323.811 136.829C326.915 138.554 329.79 142.119 330.641 145.293C331.262 147.639 330.273 148.444 328.318 149.778C326.915 150.744 325.328 151.825 324.777 153.895C324.386 155.344 324.892 156.655 326.156 157.391C329.008 159.047 335.447 157.667 339.794 153.32C342.093 151.02 343.266 148.237 343.266 145.086C343.312 136.898 335.424 128.963 335.079 128.641Z" fill="#2D2D2D"/>
<path d="M349.154 133.172C348.901 133.172 349.085 132.321 348.878 132.16C348.418 131.769 348.349 131.079 348.74 130.596C348.74 130.596 349.361 129.745 350.855 125.973C351.706 123.88 351.637 120.522 349.637 117.762C347.958 115.462 344.324 112.817 336.574 113.346C335.953 113.392 335.447 112.932 335.401 112.311C335.355 111.713 335.815 111.184 336.436 111.138C345.198 110.54 349.43 113.691 351.43 116.451C353.937 119.878 353.983 124.11 352.902 126.778C351.292 130.826 350.58 131.815 350.419 132.022C350.212 132.275 349.476 133.172 349.154 133.172Z" fill="#2D2D2D"/>
<path d="M269.514 276.784C255.67 276.784 246.172 271.448 239.825 266.986C239.319 266.641 239.204 265.951 239.549 265.445C239.894 264.939 240.584 264.824 241.09 265.169C248.794 270.597 261.327 277.336 281.036 273.38C306.862 268.182 309.621 219.422 311.438 187.153C312.22 173.33 312.841 162.428 314.888 157.276C315.118 156.701 315.762 156.425 316.314 156.655C316.889 156.885 317.165 157.529 316.935 158.081C315.026 162.911 314.382 174.204 313.646 187.268C311.668 222.182 308.978 269.999 281.473 275.542C277.172 276.416 273.194 276.784 269.514 276.784Z" fill="#2D2D2D"/>
<path d="M313.646 165.05C299.687 169.236 284.647 164.544 275.471 153.251C274.574 152.147 273.033 153.711 273.907 154.815C283.566 166.683 299.595 171.559 314.244 167.166C315.578 166.752 315.003 164.636 313.646 165.05Z" fill="#2D2D2D"/>
<path d="M239.066 248.264C247.92 264.916 257.05 273.702 266.571 275.588C260.27 276.002 251.738 273.104 240.469 266.089L239.066 248.264Z" fill="#2D2D2D"/>
<path d="M86.9629 209.371H24.9165C24.3186 209.371 23.8356 208.888 23.8126 208.313L17.4424 17.367C17.4424 17.068 17.5344 16.769 17.7414 16.562C17.9484 16.355 18.2243 16.217 18.5233 16.217H157.058C157.357 16.217 157.633 16.332 157.84 16.562C158.047 16.769 158.162 17.068 158.139 17.367L157.219 44.714C157.196 45.335 156.69 45.841 156.092 45.772C155.494 45.749 155.012 45.243 155.035 44.645L155.908 18.448H19.6731L25.9744 207.186H86.9399C87.5608 207.186 88.0437 207.669 88.0437 208.29C88.0437 208.911 87.5608 209.371 86.9629 209.371Z" fill="#2D2D2D"/>
<path d="M19.3283 42.1149C18.7303 42.1149 18.2244 41.6319 18.2244 41.0339C18.2244 40.4129 18.7073 39.9299 19.3053 39.9069L157.035 38.3429C157.61 38.2969 158.139 38.8259 158.162 39.4239C158.162 40.0449 157.679 40.5279 157.081 40.5509L19.3283 42.1149C19.3513 42.1149 19.3283 42.1149 19.3283 42.1149Z" fill="#2D2D2D"/>
<path d="M69.577 113.898H42.6933C42.0954 113.898 41.6124 113.415 41.5894 112.817L41.0605 87.5859C41.0375 86.9879 41.5204 86.4819 42.1413 86.4589L70.0829 85.7229C70.3819 85.7229 70.6809 85.8379 70.8878 86.0449C71.0948 86.2519 71.2098 86.5509 71.2098 86.8499L70.6809 112.817C70.6579 113.415 70.1749 113.898 69.577 113.898ZM43.7741 111.69H68.4961L68.9791 87.9539L43.2912 88.6439L43.7741 111.69Z" fill="#2D2D2D"/>
<path d="M116.514 113.898H88.2048C87.5838 113.898 87.1009 113.415 87.1009 112.794V86.8269C87.1009 86.2059 87.5838 85.7229 88.2048 85.7229H116.514C117.135 85.7229 117.618 86.2059 117.618 86.8269V112.794C117.618 113.392 117.112 113.898 116.514 113.898ZM89.3086 111.69H115.41V87.9309H89.3086V111.69Z" fill="#2D2D2D"/>
<path d="M107.499 165.763H87.1928C86.6179 165.763 86.158 165.326 86.089 164.751L83.5133 136.53C83.4903 136.231 83.5823 135.932 83.7892 135.702C83.9962 135.472 84.2722 135.334 84.5711 135.334L116.468 133.77C116.767 133.77 117.066 133.862 117.273 134.069C117.503 134.276 117.618 134.575 117.618 134.874V155.436C117.618 156.057 117.135 156.54 116.514 156.54C115.893 156.54 115.41 156.057 115.41 155.436V136.024L85.813 137.473L88.2047 163.532H107.499C108.12 163.532 108.603 164.015 108.603 164.636C108.603 165.257 108.12 165.763 107.499 165.763Z" fill="#2D2D2D"/>
<path d="M84.6173 115.945C84.3183 115.945 84.0194 115.83 83.7894 115.577C83.3755 115.117 83.4214 114.427 83.8814 114.013L120.332 81.6059C120.792 81.1919 121.482 81.2379 121.896 81.6979C122.31 82.1579 122.264 82.8479 121.804 83.2619L85.3532 115.669C85.1462 115.853 84.8703 115.945 84.6173 115.945Z" fill="white"/>
<path d="M42.1645 115.945C41.9115 115.945 41.6356 115.853 41.4286 115.669C40.9687 115.255 40.9457 114.565 41.3596 114.105L69.3012 83.17C69.7151 82.71 70.4051 82.687 70.865 83.101C71.3249 83.515 71.3479 84.205 70.934 84.665L42.9924 115.577C42.7624 115.83 42.4635 115.945 42.1645 115.945Z" fill="white"/>
<path d="M65.0236 170.087C64.6326 170.087 64.2417 169.88 64.0347 169.489L58.1014 158.196C57.8255 157.667 58.0324 157 58.5614 156.701C59.0903 156.425 59.7802 156.632 60.0562 157.161L65.9895 168.454C66.2654 168.983 66.0584 169.65 65.5295 169.949C65.3685 170.041 65.1846 170.087 65.0236 170.087Z" fill="#2D2D2D"/>
<path d="M65.0235 18.4249C64.6326 18.4249 64.2646 18.2179 64.0576 17.8499C63.7587 17.3209 63.9656 16.6539 64.4946 16.3549L93.701 0.254943C94.0229 0.0709433 94.4369 0.0709433 94.7589 0.254943L123.735 16.3549C124.264 16.6539 124.448 17.3209 124.172 17.8499C123.873 18.379 123.206 18.5859 122.677 18.2869L94.2299 2.48595L65.5524 18.3099C65.3915 18.379 65.2075 18.4249 65.0235 18.4249Z" fill="#2D2D2D"/>
<path d="M24.9165 209.371H18.3623C17.7644 209.371 17.2815 208.888 17.2585 208.29L12.5211 20.4949C12.5211 20.1959 12.636 19.9199 12.843 19.6899C13.05 19.4599 13.326 19.3679 13.6249 19.3679H18.5463C19.1672 19.3679 19.6502 19.8509 19.6502 20.4719C19.6502 21.0929 19.1672 21.5759 18.5463 21.5759H14.7518L19.4202 207.163H24.8935C25.5145 207.163 25.9974 207.646 25.9974 208.267C25.9974 208.888 25.5375 209.371 24.9165 209.371Z" fill="#2D2D2D"/>
<path d="M357.433 192.995C357.433 192.995 353.822 188.671 348.165 187.061C342.508 185.428 342.761 163.233 326.617 163.854C313.669 164.36 312.197 179.31 315.003 189.292C317.786 199.274 310.381 201.367 312.772 207.485L326.709 202.954C333.263 210.383 346.463 205.323 343.841 197.388L357.433 192.995Z" fill="#FE7122"/>
<path d="M316.383 203.897C315.946 203.897 315.532 203.621 315.348 203.207C314.083 199.964 315.21 197.595 316.314 195.318C317.602 192.673 318.935 189.913 317.533 184.899C315.808 178.735 315.348 169.397 319.763 163.348C322.201 160.013 325.697 158.242 330.181 158.058C341.404 157.621 345.198 167.304 347.981 174.342C349.315 177.7 350.557 180.851 352.051 181.288C357.962 182.99 361.71 187.383 361.871 187.567C362.101 187.843 362.193 188.234 362.078 188.579C361.986 188.924 361.71 189.2 361.365 189.315L316.705 203.805C316.613 203.897 316.498 203.897 316.383 203.897ZM330.273 160.289C326.501 160.427 323.581 161.899 321.557 164.659C317.878 169.719 317.947 178.183 319.671 184.301C321.304 190.12 319.648 193.524 318.314 196.284C317.418 198.147 316.728 199.573 317.096 201.413L358.974 187.82C357.525 186.486 354.857 184.416 351.43 183.45C348.901 182.714 347.567 179.402 345.911 175.193C343.243 168.385 339.886 159.967 330.273 160.289Z" fill="#2D2D2D"/>
<path d="M338.506 203C335.309 203 331.975 201.827 329.491 199.021C329.077 198.561 329.123 197.871 329.583 197.457C330.043 197.066 330.733 197.089 331.147 197.549C334.597 201.459 340.093 201.482 343.542 199.504C346.187 197.986 347.245 195.594 346.417 193.064C346.233 192.489 346.532 191.868 347.107 191.661C347.682 191.477 348.303 191.776 348.51 192.351C349.683 195.893 348.211 199.343 344.646 201.39C342.922 202.402 340.76 203 338.506 203Z" fill="#2D2D2D"/>
<path d="M328.065 157.023C327.674 156.862 327.33 156.632 327.008 156.333C326.157 155.482 326.065 154.263 326.456 153.159C326.502 152.998 326.617 152.883 326.732 152.837C326.778 152.745 326.824 152.676 326.87 152.584C324.846 145.5 322.316 139.152 319.671 139.497C318.545 139.635 317.97 140.256 317.671 140.762C316.268 143.154 318.062 148.674 322.937 160.979C323.098 161.416 323.535 161.669 323.972 161.669C324.11 161.669 324.248 161.646 324.386 161.6C324.961 161.37 325.237 160.726 325.007 160.174C322.408 153.619 318.499 143.729 319.579 141.889C319.625 141.82 319.671 141.728 319.832 141.682C321.212 142.188 324.202 150.33 326.364 159.438C326.502 160.036 327.1 160.404 327.697 160.266C328.295 160.128 328.663 159.53 328.525 158.932C328.364 158.288 328.226 157.644 328.065 157.023Z" fill="#2D2D2D"/>
<path d="M306.586 200.217C300.078 194.467 299.227 185.428 304.838 178.735C305.735 177.654 304.194 176.09 303.274 177.171C296.927 184.761 297.571 195.203 305.022 201.781C306.08 202.724 307.644 201.16 306.586 200.217Z" fill="#40BBC3"/>
<path d="M290.557 205.438C276.713 198.216 282.899 181.265 290.281 171.789C291.132 170.685 289.591 169.121 288.717 170.225C280.484 180.782 274.206 199.389 289.453 207.324C290.718 208.014 291.822 206.105 290.557 205.438Z" fill="#40BBC3"/>
<path d="M356.26 161.623C354.903 161.186 354.328 163.302 355.685 163.739C362.837 166.085 371.668 171.605 368.701 180.46C368.241 181.817 370.38 182.392 370.817 181.035C374.198 170.961 364.539 164.337 356.26 161.623Z" fill="#40BBC3"/>
<path d="M360.331 149.249C358.951 149.065 358.353 151.181 359.756 151.365C376.957 153.78 386.501 171.697 378.521 187.314C377.877 188.579 379.786 189.683 380.43 188.418C388.962 171.697 379.05 151.871 360.331 149.249Z" fill="#40BBC3"/>
</svg>
